<svg xmlns="http://www.w3.org/2000/svg" viewBox="0 0 1334.59 637.54"><defs><style>.cls-1{fill:#a01127;}.cls-2{fill:#fff;}</style></defs><title>Asset 3</title><g id="Layer_2" data-name="Layer 2"><g id="Objects"><path class="cls-1" d="M758.58,507.25a19.86,19.86,0,0,0-6.09-5.08,28.48,28.48,0,0,0-7.82-2.8q-4.26-.89-8.69-1.47c-3-.39-5.83-.76-8.63-1.1a39.52,39.52,0,0,1-7.62-1.66A17,17,0,0,1,714,492a9.4,9.4,0,0,1-3-5.64,10.47,10.47,0,0,1,.29-4.86,13.64,13.64,0,0,1,2.56-4.73,17.11,17.11,0,0,1,4.78-4,21.69,21.69,0,0,1,7.08-2.46,18,18,0,0,1,8.68.24,17,17,0,0,1,6.31,3.61,27.2,27.2,0,0,1,4.72,5.71q2,3.25,3.92,6.65l1.35-.24-3.56-19.63-1.65.3a5.67,5.67,0,0,1-.68,1.88,2.88,2.88,0,0,1-1.82.81,7.38,7.38,0,0,1-2.85-.12c-1.08-.24-2.31-.46-3.7-.67s-3-.37-4.78-.47a26.44,26.44,0,0,0-6.1.47,27.55,27.55,0,0,0-9.65,3.61,26.54,26.54,0,0,0-7,6.19,22.1,22.1,0,0,0-3.94,7.7,18.22,18.22,0,0,0-.42,8.29,21.68,21.68,0,0,0,3.49,9,19.21,19.21,0,0,0,5.94,5.38,26.37,26.37,0,0,0,7.57,2.9,77.08,77.08,0,0,0,8.36,1.37l8.27.9a35.64,35.64,0,0,1,7.32,1.55A14.85,14.85,0,0,1,751,519a10.61,10.61,0,0,1,3,6,17.26,17.26,0,0,1,0,5,15.59,15.59,0,0,1-1.89,5.73,16.28,16.28,0,0,1-4.77,5.18,20.83,20.83,0,0,1-8.68,3.34c-1,.18-2.16.37-3.37.55a16,16,0,0,1-3.94.08,20.8,20.8,0,0,1-4.56-1,21.78,21.78,0,0,1-5.25-2.79,22.83,22.83,0,0,1-4.49-3.83,35.77,35.77,0,0,1-3.34-4.3,32.45,32.45,0,0,1-2.28-4.07c-.59-1.28-1-2.32-1.31-3.12l-1.55.28,4.15,22.93,1.66-.29a4.07,4.07,0,0,1,.79-2.12,3.46,3.46,0,0,1,2-.84,12.38,12.38,0,0,1,3.26,0c1.49.16,3.18.29,5.09.41s4,.19,6.12.22a34.48,34.48,0,0,0,17.73-4.65,29.19,29.19,0,0,0,8-7,24.48,24.48,0,0,0,4.39-9,23.36,23.36,0,0,0,.33-10A18.32,18.32,0,0,0,758.58,507.25Z"/><polygon class="cls-1" points="801.41 531.29 788.61 460.63 798.11 458.9 797.85 457.46 763.86 463.61 764.12 465.06 773.63 463.34 786.43 534.01 776.92 535.73 777.18 537.18 811.17 531.02 810.91 529.57 801.41 531.29"/><polygon class="cls-1" points="875.81 444.83 875.54 443.38 854.88 447.13 855.14 448.57 864.65 446.85 873.29 494.58 873.09 494.62 829.77 451.67 805.39 456.09 805.65 457.54 815.16 455.81 827.96 526.49 818.46 528.21 818.72 529.65 839.38 525.91 839.12 524.46 829.61 526.19 817.88 461.4 818.09 461.37 876.58 519.17 879.37 518.67 866.3 446.55 875.81 444.83"/><path class="cls-1" d="M954.64,482.41a35.84,35.84,0,0,1-1.41,8.69,29.68,29.68,0,0,1-3.59,7.85,23.83,23.83,0,0,1-5.78,6.11,19,19,0,0,1-8.08,3.39,27.45,27.45,0,0,1-10.27.15,14.37,14.37,0,0,1-7.87-4.55,31.28,31.28,0,0,1-5.9-10.46,107.52,107.52,0,0,1-4.46-17.54q-1.47-8.16-2.1-15.15a37.86,37.86,0,0,1,.7-12.34,17.67,17.67,0,0,1,5.16-8.94q3.83-3.57,11.37-4.94a20,20,0,0,1,9.72.32,20.58,20.58,0,0,1,7.24,4,30,30,0,0,1,5.38,6.18c1.53,2.32,2.87,4.55,4,6.68l1.35-.24-3.82-21.08-1.66.3a2.51,2.51,0,0,1-.7,2,5,5,0,0,1-2.11.75,11.43,11.43,0,0,1-3.41,0c-1.39-.18-2.93-.34-4.63-.49s-3.53-.27-5.5-.34a29.22,29.22,0,0,0-6.26.49,37,37,0,0,0-13,5.18,41.58,41.58,0,0,0-18,23.91,37.61,37.61,0,0,0,5.23,31A40.18,40.18,0,0,0,907,503.79a40.69,40.69,0,0,0,13.8,5.82,38.08,38.08,0,0,0,15.11.3,34.8,34.8,0,0,0,6.2-1.71c1.92-.74,3.69-1.48,5.3-2.24s3-1.44,4.27-2a12.1,12.1,0,0,1,3.1-1.15,4.19,4.19,0,0,1,2.25.07,3.69,3.69,0,0,1,1.55,1.48l1.65-.3-4-21.9Z"/><path class="cls-1" d="M1030.76,467.87a37.23,37.23,0,0,1-1.49,8.86,26.11,26.11,0,0,1-3.68,7.66,21.79,21.79,0,0,1-6,5.72,22.38,22.38,0,0,1-8.28,3.16l-17,3.06L987.65,459l6.92-1.26a13.43,13.43,0,0,1,6.27.15,12.14,12.14,0,0,1,4.69,2.62,17.16,17.16,0,0,1,3.52,4.43q1.49,2.61,2.76,5.47l1.34-.24-5.82-32.13-1.35.24a37.75,37.75,0,0,1-.7,6.69,17,17,0,0,1-2,5.38,11.69,11.69,0,0,1-3.83,3.9,17.21,17.21,0,0,1-6.26,2.25l-5.78,1-5.79-31.93,16.43-3a18,18,0,0,1,8.92.36,20.56,20.56,0,0,1,6.55,3.45,22.91,22.91,0,0,1,4.43,4.7,38.81,38.81,0,0,1,2.57,4.17l1.34-.24-3.2-17.67-61.79,11.19.27,1.45,9.5-1.72,12.8,70.67-9.5,1.72.26,1.45,66-12-4.1-22.63Z"/><path class="cls-1" d="M1106.4,476.05,1093,402.28l-4.14.75q-2.57,3.45-4.79,5.93t-4.45,4.6q-2.23,2.12-4.82,4.29c-1.73,1.45-3.71,3.12-5.92,5l1.07,1.19q3-2.46,6-5c2-1.72,4.08-3.41,6.12-5.06l11.66,64.37-9.71,1.76.26,1.45,31.83-5.77-.27-1.44Z"/><path class="cls-1" d="M1168.17,407.93a30.86,30.86,0,0,0-7.37-9.18,23.78,23.78,0,0,0-9.46-4.79,25,25,0,0,0-10.67-.31,23.68,23.68,0,0,0-8.76,3.51,26.86,26.86,0,0,0-7,6.49,26,26,0,0,0-4.24,8.45,20.49,20.49,0,0,0-.47,9.48,22.14,22.14,0,0,0,3.56,8.74,23.92,23.92,0,0,0,6.51,6.45,25,25,0,0,0,8.38,3.61,23.18,23.18,0,0,0,9.32.18,18.84,18.84,0,0,0,5.2-1.64,13.3,13.3,0,0,0,3.41-2.38,11.2,11.2,0,0,0,2-2.66c.47-.9.86-1.7,1.16-2.4l.21,0q1.37,7.55,1.91,14.12a44.79,44.79,0,0,1-.35,11.59,18.47,18.47,0,0,1-3.42,8.24,11.44,11.44,0,0,1-7.36,4.11c-.62.11-1.31.22-2.08.33a5.64,5.64,0,0,1-2.21-.14,4,4,0,0,1-1.85-1.1,4.88,4.88,0,0,1-1.11-2.58,7.51,7.51,0,0,1-.07-1.58c0-.65,0-1.33,0-2s0-1.41,0-2.09a8.61,8.61,0,0,0-.08-1.64,4.36,4.36,0,0,0-.93-2.18,3.73,3.73,0,0,0-1.58-1.05,4.66,4.66,0,0,0-1.85-.25,17.67,17.67,0,0,0-1.78.22,7.54,7.54,0,0,0-4.73,2.45c-1,1.26-1.33,3-.93,5.19a10.58,10.58,0,0,0,1.28,3.23,9.1,9.1,0,0,0,3.19,3.16,14.72,14.72,0,0,0,5.73,1.9,27.81,27.81,0,0,0,8.83-.43,25.55,25.55,0,0,0,13-6,29,29,0,0,0,7.58-11.19,45,45,0,0,0,2.84-15,83.18,83.18,0,0,0-1.4-17.41A44.19,44.19,0,0,0,1168.17,407.93Zm-12.26,27.14a12.9,12.9,0,0,1-7.46,3.91,8.47,8.47,0,0,1-8.63-3.19q-3.36-4.12-5.31-14.88a68.56,68.56,0,0,1-1.35-12.72,22.94,22.94,0,0,1,1.17-7.68,7.66,7.66,0,0,1,3-4,11.94,11.94,0,0,1,4-1.53,15.23,15.23,0,0,1,4-.14,7.3,7.3,0,0,1,4.39,2.41,22.69,22.69,0,0,1,4.3,7.27,75.11,75.11,0,0,1,3.82,14.57c.31,1.72.55,3.37.73,4.94a26,26,0,0,1,.23,3.32A11.48,11.48,0,0,1,1155.91,435.07Z"/><path class="cls-1" d="M1225.62,397.52a31,31,0,0,0-7.38-9.17,24,24,0,0,0-9.45-4.8,25.24,25.24,0,0,0-10.68-.31,23.91,23.91,0,0,0-8.75,3.51,27.1,27.1,0,0,0-7,6.5,26.11,26.11,0,0,0-4.23,8.45,20.31,20.31,0,0,0-.47,9.47,22.09,22.09,0,0,0,3.56,8.75,24.17,24.17,0,0,0,6.5,6.45,24.79,24.79,0,0,0,8.39,3.6,23,23,0,0,0,9.31.18,18.86,18.86,0,0,0,5.2-1.63,13.55,13.55,0,0,0,3.41-2.38,11.14,11.14,0,0,0,2-2.66c.48-.91.86-1.71,1.17-2.4l.2,0q1.36,7.54,1.92,14.11a44.32,44.32,0,0,1-.36,11.59,18.56,18.56,0,0,1-3.41,8.25,11.53,11.53,0,0,1-7.37,4.11c-.62.11-1.31.22-2.07.32a5.63,5.63,0,0,1-2.21-.13,4,4,0,0,1-1.86-1.11,4.92,4.92,0,0,1-1.1-2.57,7.52,7.52,0,0,1-.08-1.59q0-1,.06-2c0-.71,0-1.41,0-2.09a7.8,7.8,0,0,0-.09-1.64,4.36,4.36,0,0,0-.92-2.18,3.86,3.86,0,0,0-1.58-1,4.56,4.56,0,0,0-1.86-.25,15.08,15.08,0,0,0-1.77.21,7.62,7.62,0,0,0-4.74,2.46,6.18,6.18,0,0,0-.92,5.18,10.28,10.28,0,0,0,1.28,3.24,9.23,9.23,0,0,0,3.18,3.16,14.84,14.84,0,0,0,5.74,1.89,28.06,28.06,0,0,0,8.83-.42,25.6,25.6,0,0,0,12.95-6,29,29,0,0,0,7.57-11.19,44.75,44.75,0,0,0,2.84-15,83.2,83.2,0,0,0-1.39-17.41A44.56,44.56,0,0,0,1225.62,397.52Zm-12.27,27.14a12.82,12.82,0,0,1-7.45,3.91,8.47,8.47,0,0,1-8.64-3.18q-3.36-4.14-5.31-14.89a68.41,68.41,0,0,1-1.34-12.72,22.78,22.78,0,0,1,1.17-7.68,7.66,7.66,0,0,1,3-4,11.7,11.7,0,0,1,4-1.53,15.21,15.21,0,0,1,4-.15,7.36,7.36,0,0,1,4.38,2.41,22.75,22.75,0,0,1,4.31,7.28,75.55,75.55,0,0,1,3.81,14.57c.31,1.72.56,3.36.73,4.93a24.3,24.3,0,0,1,.23,3.32A11.42,11.42,0,0,1,1213.35,424.66Z"/><path class="cls-1" d="M1284,409.57q-5.24-4.11-14.29-6.42,6.52-4.61,9.18-9.14a13.67,13.67,0,0,0,1.73-9.59,12.82,12.82,0,0,0-2.67-5.87,16.52,16.52,0,0,0-5.08-4.2,20.07,20.07,0,0,0-6.75-2.19,23.84,23.84,0,0,0-7.75.17,28,28,0,0,0-8.78,3.09,23.33,23.33,0,0,0-6.56,5.35,18.6,18.6,0,0,0-4,15.45,19.36,19.36,0,0,0,2.32,6.62,17.41,17.41,0,0,0,3.79,4.39,19.21,19.21,0,0,0,4.9,2.9q2.7,1.11,5.78,2.15c-2.08,1.52-4,3-5.75,4.51a26.76,26.76,0,0,0-4.51,4.87,16.08,16.08,0,0,0-2.67,12.92,16,16,0,0,0,3.29,7.3,19.91,19.91,0,0,0,6.21,5.12,24.42,24.42,0,0,0,8.15,2.58,29.14,29.14,0,0,0,9.25-.24,24.09,24.09,0,0,0,9.93-4.09,26.55,26.55,0,0,0,10.54-15.73,21.31,21.31,0,0,0,.31-8.59A17.94,17.94,0,0,0,1284,409.57Zm-29.61-11.49a13.8,13.8,0,0,1-4.31-3.76,13.15,13.15,0,0,1-2.31-5.66,13.66,13.66,0,0,1,0-5,12.68,12.68,0,0,1,1.71-4.41,11.2,11.2,0,0,1,3.28-3.37,12.14,12.14,0,0,1,4.63-1.86,8.65,8.65,0,0,1,5.94.69,10.28,10.28,0,0,1,3.67,3.5,16.45,16.45,0,0,1,2,4.49c.43,1.56.73,2.82.9,3.79a51.11,51.11,0,0,1,.89,7.25,19.65,19.65,0,0,1-.3,4.54,8.42,8.42,0,0,1-1,2.69c-.41.64-.83,1.21-1.23,1.72q-4.24-1.05-7.74-2.07A28,28,0,0,1,1254.37,398.08ZM1281.28,435a15.76,15.76,0,0,1-1.35,5.48,13,13,0,0,1-3.69,4.67,14.58,14.58,0,0,1-6.75,2.82,13.61,13.61,0,0,1-5,0,8.86,8.86,0,0,1-4.42-2.29,16.5,16.5,0,0,1-3.54-5.13,34.06,34.06,0,0,1-2.49-8.45c-.27-1.45-.5-3-.71-4.78a25.31,25.31,0,0,1-.09-5.22,18.5,18.5,0,0,1,1.16-5.06,11.06,11.06,0,0,1,3.06-4.34l9.62,3a50.05,50.05,0,0,1,5.28,2,15.16,15.16,0,0,1,4.06,2.68,13.82,13.82,0,0,1,2.88,3.85,20,20,0,0,1,1.76,5.55A21.63,21.63,0,0,1,1281.28,435Z"/><path class="cls-1" d="M1331.23,486.69,1302.92,326a13.88,13.88,0,0,0-16.06-11.24L669.1,423.62a13.89,13.89,0,0,0-11.25,16.06l28.32,160.68a13.88,13.88,0,0,0,16.05,11.25L1320,502.75A13.88,13.88,0,0,0,1331.23,486.69ZM702.07,594.74,674.72,439.52,1287,331.63l27.35,155.22Z"/><path class="cls-2" d="M908.56,462.35c.19-.08.43-.16.63-.26a.63.63,0,0,0-.43-.13C908.7,462.1,908.61,462.2,908.56,462.35Z"/><path class="cls-2" d="M907.4,458.57c.56-.13.79-.76,1-1.4a15.52,15.52,0,0,0-2.52.55A2.59,2.59,0,0,0,907.4,458.57Z"/><path class="cls-2" d="M901.63,442.33a1.84,1.84,0,0,0,1-.32,5.74,5.74,0,0,0-.92-1.78C901.24,440.76,901.28,440.6,901.63,442.33Z"/><path class="cls-2" d="M932.37,541.8c0,.68,0,1.26,0,1.72.35-.55.65-1.15,1-1.71A1.69,1.69,0,0,1,932.37,541.8Z"/><path class="cls-2" d="M884.48,539.67c.74,4.06,1.63,3.94,3.34,6C887.29,542.84,886.67,540.13,884.48,539.67Z"/><path class="cls-2" d="M904,387c-3.17-1.05-3.05.64-5.72,1.36a14.51,14.51,0,0,0,1,6.07C902.31,395.86,904.59,392.75,904,387Z"/><path class="cls-2" d="M1030.72,415.1c0,2.11.26,3.74,1,4.71-.36-1.83,2.23.48,1.9-1.36C1031.73,418.6,1032.73,414.76,1030.72,415.1Z"/><path class="cls-2" d="M1297.61,330.14c-.27,1.44-1.39,2.22-.51,3.38C1298.48,333.61,1298.94,330.1,1297.61,330.14Z"/><path class="cls-2" d="M923.13,450.46a5.78,5.78,0,0,1,1.19-4.25,4,4,0,0,0-1.35-.73c-2,1.67-2.21,5.91-4.43,7.3.49,1.57,2.65.84,3.1,2.41,2.06-.19,2.2-2.93,4.34-3.05.39-.78.78-1.57,1.23-2.37-.51-.72-1-1.45-1.5-2.16C925.05,449.05,924.05,450.25,923.13,450.46Z"/><path class="cls-2" d="M941,510.93c-.19-.17-.34-.34-.51-.52a3.26,3.26,0,0,1,.45.77C940.91,511.1,940.94,511,941,510.93Z"/><path class="cls-2" d="M946.14,496.35c-.24-2.09-.64-4-2.67-3.65v2.44C944,496,945.55,495.5,946.14,496.35Z"/><path class="cls-2" d="M932.33,483.67a50.1,50.1,0,0,1,1.35-5.49c-.91,0-.57-1.64-1.79-1.22-.33,2.42-1.48,3.69-2.22,5.46C930.44,483,930.8,484.1,932.33,483.67Z"/><path class="cls-2" d="M939,472.84c-1.17-.5-2-.94-3.13.52-.08,2,.13,3.5.83,4.39A49.85,49.85,0,0,0,939,472.84Z"/><path class="cls-2" d="M929.61,431.54c0,2.23-.15,4.68,1.8,4.2C930.81,434.37,931.49,431.24,929.61,431.54Z"/><path class="cls-2" d="M936.47,484.85a29.82,29.82,0,0,0,2.18-4.8,2.84,2.84,0,0,0-3,2.8A1.71,1.71,0,0,0,936.47,484.85Z"/><path class="cls-2" d="M805.45,439.83c-1.68,1.26-2.39.07-2.84-2-1.51.45-2.46,1.46-2.4,4C802.69,440.74,804.15,442,805.45,439.83Z"/><path class="cls-2" d="M803,445.92c-1.33.31-2.13,1.42-2.33,3.34C802.49,451,804.05,448.75,803,445.92Z"/><path class="cls-2" d="M802.61,451.32c-1,4-3.13,8.56,1,10.13-.53-5.75.89-5.32,1.89-9.51C804.91,451.22,803.79,451.23,802.61,451.32Z"/><path class="cls-2" d="M836.51,375.6c0-2-.18-3.84-2-3.39C834.89,373.85,835.22,375.34,836.51,375.6Z"/><path class="cls-2" d="M809.86,239.12c.62-2.86-2.57-4.27-3.1-1.85C807.35,238.45,808,239.65,809.86,239.12Z"/><path class="cls-2" d="M806,564.13a8.12,8.12,0,0,0-4.31-1.35c-.24,4.84.11,8.86,2.43,10.12C803.68,568.47,806.47,568.58,806,564.13Z"/><path class="cls-2" d="M804,380.38c1.84-.11,2-2.68,1.88-5.43-2.45-1.66-5.91-1.81-5.72,3.41C802.65,377.28,802.72,379.71,804,380.38Z"/><path class="cls-2" d="M812.22,489.13c-.71.88-.85,4.07.45,4.06C813.36,492.3,813.5,489.14,812.22,489.13Z"/><path class="cls-2" d="M831.24,377.62c.65,3.82-2.45,2.38-2.39,5.43,1,.57.8,2.93,1.47,4.05a9,9,0,0,0-2,5.4c.91,1.31,1.79.2,2.9,0-1-5.51,2.23-4.93,2.87-8.12C831.91,382.61,834.39,378.28,831.24,377.62Z"/><path class="cls-2" d="M831.26,401.24c-1.49.52-.91.51-2.39,0,.35,3-1.36,3-1.41,5.44C830.35,407.2,831.61,405.4,831.26,401.24Z"/><path class="cls-2" d="M829.87,443.16v2.69C832.07,446.92,831.52,442.38,829.87,443.16Z"/><path class="cls-2" d="M822.25,491.12c.76-3.54-3-3.35-2.86-.67C819.93,491.25,821.06,491.25,822.25,491.12Z"/><path class="cls-2" d="M820.24,377a4,4,0,0,1,4.32,0l0-1.33c.33-.08.57-.14.47-.7-2-.37-3.2-1.75-4.28-3.36C820,372.55,820.31,375.05,820.24,377Z"/><path class="cls-2" d="M820.23,365.51c.93.93.59,3.69,2.43,3.34,1.56-.71,2.82-1.87,2.86-4.73C824.36,363.26,820.9,363.66,820.23,365.51Z"/><path class="cls-2" d="M822.66,381c0-2.3-1.43-2.5-2.41-3.39C818.73,379.75,821.18,383.13,822.66,381Z"/><path class="cls-2" d="M813.65,515.51c-1,1.49.16,3.76,1.9,3.35C815.28,517.28,814.9,515.7,813.65,515.51Z"/><path class="cls-2" d="M814.62,505.31c.21,3.33,1.87,4.53,3.32,6.11C820.26,508.8,816.88,505.64,814.62,505.31Z"/><path class="cls-2" d="M822.21,419.53c-3.5,3.71,4,9.59,4.76,3.36C825.53,421.6,823.21,421.41,822.21,419.53Z"/><path class="cls-2" d="M827,406.69c-1.45.48-1.77-.69-2.87-.69-.6,1.2.46,4.09-.5,6.1C825.59,411.51,826.32,409.1,827,406.69Z"/><path class="cls-2" d="M877.51,175.53c-.62,6.36-3.8,9.05-4.76,14.86C875.25,188,882,179,877.51,175.53Z"/><path class="cls-2" d="M888.69,379.55a6.27,6.27,0,0,0,.41-3.37c-1.9-.47-3-2-4.73-2.7C885.28,376.23,886.18,379,888.69,379.55Z"/><path class="cls-2" d="M884.85,436.31c.73-3.19-.21-5.82-1-8.78.15,4.15-.94-.54-2.89.64C879.62,432.21,883,434.79,884.85,436.31Z"/><path class="cls-2" d="M869.85,189.92c-1.53-.43-1.56,2.12-.84,3C870.53,193.36,870.58,190.77,869.85,189.92Z"/><path class="cls-2" d="M870.9,264.73c.63-.88.73-3.34-.49-3.38C869.74,262.19,869.67,264.64,870.9,264.73Z"/><path class="cls-2" d="M877.88,195.94c.21,2.29-1.14,4.32,0,6.06,1.73-.26,1.59-.66,2.69.59a13.71,13.71,0,0,0,.42-6C879.72,195.42,879.59,195.59,877.88,195.94Z"/><path class="cls-2" d="M879.64,165.64c-.49-1.51-.73-3.41-1.79-4.23a5.05,5.05,0,0,0,0,4.25Z"/><path class="cls-2" d="M877.2,424.84c.27-2.46-1.43-2-2.87-2-1.71,2.74-1.86,7,1.44,7.39C875.54,427.91,874.58,424.57,877.2,424.84Z"/><path class="cls-2" d="M870,443.08c1.5.33,1.55-1.41,1.42-3.39C870,439.65,869.07,441.68,870,443.08Z"/><path class="cls-2" d="M872.51,161.42c.47-1.27,1.6-3.07-.44-3C872.31,159.29,871.56,161.49,872.51,161.42Z"/><path class="cls-2" d="M840.77,347.21c2.53,1.36,3.42-4.4,1-4.07C840.92,343.76,840.69,345.25,840.77,347.21Z"/><path class="cls-2" d="M825.42,202.11c.35-1.15,1.62-3.17,0-3.63C824.77,199.27,823.77,201.68,825.42,202.11Z"/><path class="cls-2" d="M828.54,228.78c.05-1.56,1.26,3.4,2.18.57-.68.26-1.45-2.26-.4-2.41,1.72.68,2.41,2.75,2.67,5.43,1.84.64,2.36-.09,4,1.24-.42-2,1.45-.85,1.3-2.44-1.72-.6-.79-2.46-1.31-3.64h-2.67a18.63,18.63,0,0,1-1.34-4.86c-3.38-1.17-1.79,4.44-4.88,3.68C828.14,227.22,827.93,228.6,828.54,228.78Z"/><path class="cls-2" d="M834.78,244.49c2.68.48,1.47,8.21,6.66,5.45-2.82-1-2.65-6.11-4.42-8.5C836.31,242.57,835.13,243,834.78,244.49Z"/><path class="cls-2" d="M819.66,216.67c.13,1.39.68,2.27.44,4.22l1.78,0c-.4-2.9.38-4.26.89-6C821.06,214.55,820.66,216.05,819.66,216.67Z"/><path class="cls-2" d="M808.05,204c-1.86-1.35-4.15-.2-4,3C806.25,207.13,808.36,207.23,808.05,204Z"/><path class="cls-2" d="M810.29,230c.29-1.46,2.07-.09,2.24.63-.21,1.13-1.29,1-.88,3,1.68.62,5.73-2.57,8.46-.67.91-6.23-9.11-7.26-3.59-12.07,1.94.41,1.84,3.59,4.44,3.05.08-2.91-1.48-3.64-3.56-3.65-2.14-7,3.4-7.56,4.46-12.12-1.51-2-1.89,1-3.11,1.21-1.11-.72-1.68-2.19-1.37-4.82-2.46-.15-2.07,3.57-3.54,4.85-2.06.23-3.3,2.16-6.65,1.82A36.05,36.05,0,0,1,810.29,230Z"/><path class="cls-2" d="M821.44,235.44c.38,3.67,1,4.52.45,8.44,1.42.74.33-1.92,1.77-1.17,0,2,.75,3,.46,5.44.71,1,2.58.46,4,.6.08-2.16-.84-2.87-.91-4.88-1.09-.75-1.83,1.81-2.23,0,.07-.73-.09-1.72.45-1.83,2.23,1.52,4.76,1.2,4.89-3-1.33-1.59-1.7,1.75-3.59,1.21-.72-1.44-1.73-2.42-2.21-4.24,1.8-.44,2.53.61,4,.62.15-1.47-.79-1.31-.42-3.05a6.66,6.66,0,0,0-4.49-1.23C822.91,233.37,823.3,235.94,821.44,235.44Z"/><path class="cls-2" d="M805.43,242.73c.07-1.92,0-3.66-.93-4.26C804.85,239.85,803.71,243.23,805.43,242.73Z"/><path class="cls-2" d="M844.62,354.62c-1.16.74-2.09,4.18-.93,6.09C846,361.13,846.13,355.69,844.62,354.62Z"/><path class="cls-2" d="M821.42,202.68c-1-.18-.87-2.05-2.24-1.79a5.26,5.26,0,0,0-.44,3.05C819.89,203.88,821.35,204.21,821.42,202.68Z"/><path class="cls-2" d="M856.06,166.26a2.69,2.69,0,0,0-1.31-3c-.16.83-.63,1.16-.45,2.41C854.88,165.86,855.11,166.54,856.06,166.26Z"/><path class="cls-2" d="M863.18,185.08c-.2-2.75.07-6.16-1.78-6.67C860.41,180.69,861.32,184.73,863.18,185.08Z"/><path class="cls-2" d="M860,423.53c1.82,0,1.37.74,2.9,0,.2-3.28-.4-5.33-2.41-5.39C859.73,419.1,860,421.53,860,423.53Z"/><path class="cls-2" d="M863.17,165.08c1-1.28-.48-2.34-.89-3.62,1.63.33,1.36-1.82,1.35-3.65C861.67,158.08,861.14,164.62,863.17,165.08Z"/><path class="cls-2" d="M845.46,250.52c.16-1.45-.82-1.31-.47-3-1.14-.14-1.48.87-1.31,2.49A2,2,0,0,1,845.46,250.52Z"/><path class="cls-2" d="M865.58,206.63c.27-2.4-.41-3.48-1.45-4C863.66,204.39,863.79,206.46,865.58,206.63Z"/><path class="cls-2" d="M862.7,170.82c1.56,0,1.8-1.89,1.88-4C862.62,166.25,861.55,169.1,862.7,170.82Z"/><path class="cls-2" d="M855.63,170.52c1,.28,0,3.23.91,3.65-1.95.59-2.51,3.08-3.13,5.45,1.25.72,2.37,1.27,3.55.61.83-2.5-.22-7.57,3.09-6.67.41-3.35-1.59-3.43-1.75-6-1.53,0-1.2,2.39-2.24,3C856.06,170.22,855.69,169.85,855.63,170.52Z"/><path class="cls-2" d="M848.48,400.58c1.77,1.35,2.66-.72,2.42-4.11C848.63,395.83,848.21,397.67,848.48,400.58Z"/><path class="cls-2" d="M843.74,426.91c.34,3.41-.87,4.64-1.46,6.8,1.29.86,1,4,2.9,4,1.29-2.34-.47-4.91-1-6.75,1.62-2.92,2.2-7.25,4.76-8.78,1.53-.38,1.07,2.05,2.88,1.32.38-1.21,1.1-2,1.4-3.4-4.15,1.69-3.91-1.21-7.14-2a19.49,19.49,0,0,0,0,7.42C845.48,426.25,844.35,426.25,843.74,426.91Z"/><path class="cls-2" d="M872.44,451.84c-.54,1.5-.09,4.39-1.42,4.76-1.83.41-2,.56-3.34-.68-.26,3.06,1.79,2.83,1.43,6.11,4.34-.61,7.14-3.43,8.11-8.83,1.67,1.15,4.45-1.17,4.3-4.76-4.94,1.9-9.58-.71-12.91-4.69.48,2.25-.65,2.22-1.92,2-.05,3.9,1.47,5.63,2.41,8.12C870.61,454.19,871.55,450.14,872.44,451.84Z"/><path class="cls-2" d="M849.4,160.84a3.7,3.7,0,0,0-3.12,1.82C847.07,164.33,850.15,164.63,849.4,160.84Z"/><path class="cls-2" d="M853.86,160.25c.34-3.36-.91-4.5-2.7-4.82C849.85,157.93,851.72,160.47,853.86,160.25Z"/><path class="cls-2" d="M852.34,382.31c-.52-1.58-.19-4.28-2-4C849.41,380.79,850.38,383.91,852.34,382.31Z"/><path class="cls-2" d="M861.49,499.17c-1.28,2.26-3.42,3.27-3.36,7.44.79,1.22,1.62-.59,3.37,0,0-1-.21-2.51.44-2.71,2.35-.81,1.62,2.7,3.35,2.71.8-.9,1.87-1.41,1.91-3.38C864,503.68,864.11,499.52,861.49,499.17Z"/><path class="cls-2" d="M857.62,485.69c1.06,2.53-.43,3.24-.91,5.37C858.77,491.66,860.08,485.34,857.62,485.69Z"/><path class="cls-2" d="M985.26,453.85c-.08.72-.69.67-1.33.6,0,1.45,1.26,4.28,1.77,3.05C984.81,456.88,987.06,454.7,985.26,453.85Z"/><path class="cls-2" d="M989.13,422c-.36,2.74,1.64,4.26,2.89,2.7C992.46,421.76,990.84,421.74,989.13,422Z"/><path class="cls-2" d="M989.64,448.28c.66-1.77,2.15-1.29,3.32-.72,0-1.59.85-1.94.49-4C991.78,444.12,988.88,446.51,989.64,448.28Z"/><path class="cls-2" d="M986.3,473.25c-1.13-2-.58-6.39-1.44-8.74C983,469.1,983.19,473.19,981,478c2.1-.93,1,2.61,2.88,2,.11-2.13-.85-2.81-.47-5.36C984.05,473.7,985.71,474.23,986.3,473.25Z"/><path class="cls-2" d="M990.65,491.4c.6.13.38,1.48.45,2.44,2.52-.09,1.9,4.26,4,4.84C994.66,495.38,992.43,488.89,990.65,491.4Z"/><path class="cls-2" d="M991.4,474a5.15,5.15,0,0,0,2.31,1.7,8.64,8.64,0,0,0-2.25-7.28,3.42,3.42,0,0,0-1.81-3.25,18.68,18.68,0,0,1-.45,2.23,1.75,1.75,0,0,0-.82.4c.15.34.27.71.43,1.06a35.78,35.78,0,0,1-2.06,5.14C988.13,476.48,989.42,474.18,991.4,474Z"/><path class="cls-2" d="M988.86,486.59c-.87-1.9-1.44-4.15-3.14-4.89.15.44.28.79.42,1.15-1.33,1.37-2,6.12,1.13,5.28-.08-1,0-2.19,0-3.25A10,10,0,0,0,988.86,486.59Z"/><path class="cls-2" d="M985.79,459.11c2.41-.5,2.69,2.07,5.28,1.34,2.36-2.06,1.23-8.15-1.43-8.84C989.46,455.68,985.6,454.56,985.79,459.11Z"/><path class="cls-2" d="M974.64,492.07c0-1.95.71-8.63,2.64-11.51,5.48,1.24,5.63,12.8,11.12,12.06.42-3.78-3.39-1.83-4-4.22l0-4.25c-2.26-1.2-3.79-3.32-4.47-6.65.27-2.44,1.88-3.08,1.72-6.06-2.61-.85-2.38-3.2-2.75-6.37a14.63,14.63,0,0,1,2.61-1.9c-.67-5,1.15-6.44,1.41-10.17-1.74,1.16-2.09,4.26-4.76,4.06.83,2.33.12,4-.61,5.8-1,.27-1.09,1.7-2.55,1.33,2,3.5-.63,7.74,2.67,9.68-.54.83-2.07.39-2.65,1.2l0,3.63C970.57,481.69,973.3,488,974.64,492.07Z"/><path class="cls-2" d="M969.32,579.32c-2.24.45-1.69-3-3.56-3-.65,5.55-2.63,9.35-4,13.94,1.32-.49,2.77-.73,3.55-1.87.58-1.46-1.29-2.48,0-3,.9.07.57,1.67,1.8,1.22C968.27,584.69,969.67,583.22,969.32,579.32Z"/><path class="cls-2" d="M982.55,398.15c1,.26,3.33,1.88,4,.56-.74-.81-.71-2.69-1.32-3.64C984.06,395.71,982.34,395.59,982.55,398.15Z"/><path class="cls-2" d="M992.83,506.53a5.5,5.5,0,0,0-3.09-4.22C988.44,504.59,991.72,507.63,992.83,506.53Z"/><path class="cls-2" d="M982,503h1.9c0-2.05.05-4.13-1.45-4.05C981.16,499,981.35,502.15,982,503Z"/><path class="cls-2" d="M981.53,493.54c2.12.12,3.94,3.67,4.79,0-.37-.16-.56-.57-.5-1.35C984.52,492.81,981.32,490.79,981.53,493.54Z"/><path class="cls-2" d="M989.72,544.23c-1.34-.85-2.74,2.77-5.25.66a5.7,5.7,0,0,0-.5,3.4C986.54,549.87,989.27,547.69,989.72,544.23Z"/><path class="cls-2" d="M831.21,247.49c1,1.08,2.15,2,3.15,3.06a12.38,12.38,0,0,1,0-6.67C832.27,243.74,831.26,244.94,831.21,247.49Z"/><path class="cls-2" d="M855.19,394.48c-1.55.1-3.65-.65-3.36,2C852.81,397.66,855.92,397.78,855.19,394.48Z"/><path class="cls-2" d="M857.13,455.93c1.23,0,.68-2.6,1.92-2.69.05,2.47.54,1.89,0,4.05,1.67.33,2.67-.27,3.87-.68.56-3.11-1.36-2.66-1-5.41-3.14-.51-3.18-.18-5.23,1.38-2.63-1.87-.88-5.89-1.94-9.47-3.5,1.9.33,8.13-1,11.47C855.31,454.49,855.41,456.39,857.13,455.93Z"/><path class="cls-2" d="M850,476.23c-.77-.12-2.53-2.2-1.45-2.72.23,1.23.53-.29,1-.69,1.55.53,2.09,2.48,1.88,5.41.38.18,1,0,1,.68,1.36-.29,2.15-1.4,2.36-3.4-2.71-1.77-2.36-7.82-6.68-7.43.64-.83.71-3.27-.5-3.32-1.27,1.57-3.3,2.06-2.87,6.05.59,1.67,1.8-1.39,2.39.67-1.79,1.28-2.41,7.1-1.41,10.17C848.64,482,848,477.2,850,476.23Z"/><path class="cls-2" d="M843.32,548.54c1-2.33-.63-5.12-.49-6.78C841.65,543.9,841.41,547.29,843.32,548.54Z"/><path class="cls-2" d="M838.48,494.49h2.39c-.23-2.11-.1-4.78-1.89-4.76C839.23,491.88,838.1,492.15,838.48,494.49Z"/><path class="cls-2" d="M838.44,438.44c0,.84-.57.91-.44,2,.69.3,1.2,1,1.89,1.32C840,439.84,840,438.14,838.44,438.44Z"/><path class="cls-2" d="M854.35,569.43c.23,2.15-1.3,1.81-1.46,3.39C854.65,576.6,857.32,570.46,854.35,569.43Z"/><path class="cls-2" d="M850,564.76c-.06,1.64-.06,3.2.47,4a2.38,2.38,0,0,0,2.38-.71v-2.65C852.12,564.13,851,566.38,850,564.76Z"/><path class="cls-2" d="M842.32,468.1c-1.33.91-2.77,1.58-3.35,3.39.39,1.94,1.55,2.79,1.43,5.45,1.15.24,1-1.28,2.38-.68C842.18,473.11,842.83,470.23,842.32,468.1Z"/><path class="cls-2" d="M847.1,458.68c-.4-3.27-1.64-5.32-1.92-8.82-2.81,1.34-4.67,7.27-4.8,10.15C842,460.4,843.77,456.36,847.1,458.68Z"/><path class="cls-2" d="M861,556.6c3,.34,3.45-6.37,2.86-8.8C863.31,551.28,861,552.21,861,556.6Z"/><path class="cls-2" d="M863.92,588.36c1.44.92,1.68-.31,3.85,0-.4-3.55-2.1-5.19-3.36-7.44A7.47,7.47,0,0,0,863.92,588.36Z"/><path class="cls-2" d="M873.91,485c.4,4.8,1.64,8.4,2.38,14.18,4.85-1.32-.57-7.48,2-11C876.77,489.61,875.34,486.41,873.91,485Z"/><path class="cls-2" d="M868.67,534.29c.58.14.54,1,.48,2a4.78,4.78,0,0,0,2.38-3.37C870.64,531.65,869.05,532.87,868.67,534.29Z"/><path class="cls-2" d="M872,466.73c-1.61,3-4.51,11.66,0,12.15-1.23-4.36.83-2,1.93-2.7C871.89,474.92,873.71,468.32,872,466.73Z"/><path class="cls-2" d="M866.72,495.77c-.14,2.94.64,4.49,1.93,5.4C870,498.83,868.59,495.73,866.72,495.77Z"/><path class="cls-2" d="M1177.29,308.72a2.37,2.37,0,0,0-2.22.56c.8,2.91-.26,2.73-.47,5.52C1175.74,313,1177.21,311.88,1177.29,308.72Z"/><path class="cls-2" d="M1172.83,321.44c.82,3.39,4.09-1.09,2.25-3.05C1175,320.3,1172.68,319.16,1172.83,321.44Z"/><path class="cls-2" d="M1171.39,431.74c.65,3.06,3.93,1.28,2.4-1.35C1174,432.23,1171.18,429.88,1171.39,431.74Z"/><path class="cls-2" d="M1187.54,322.63c-.5.95-1.45,1.27-1.36,3C1188.31,326.74,1189.25,323.17,1187.54,322.63Z"/><path class="cls-2" d="M1169.72,309.9c0-.34,0-.7.45-.59.06.93-.05,2.14.9,1.83-.39-1.71.61-1.58.41-3a1.61,1.61,0,0,1-1.3-.61C1170.76,309,1168.11,309,1169.72,309.9Z"/><path class="cls-2" d="M1192.88,352.3a4.28,4.28,0,0,1,.43-1.83c-.64-.93-1.47-.64-1.9.13.66-3.39-1.07-8.7-3.36-10.12-2.33,4.57.73,8.62,3.35,10.18a2.74,2.74,0,0,0-.31,1C1191.72,351.87,1192,352.52,1192.88,352.3Z"/><path class="cls-2" d="M1170.91,428.32l0-3.33c-1.47-.33-1.34,1.67-1.9,2.69C1169.63,427.9,1169.91,428.63,1170.91,428.32Z"/><path class="cls-2" d="M1173.46,538.35c-.65-2.17-1.51-4.05-3.59-4.24,1,3.35.06,4.6-.86,5.41.34.18.5.54.43,1.26C1171.39,540.81,1171.88,538.82,1173.46,538.35Z"/><path class="cls-2" d="M1200.49,337.77v2.7a1.81,1.81,0,0,1,1.42.69c.28-5.66,5.77-2.3,4.29-8.78C1203.67,333.26,1203.29,337.21,1200.49,337.77Z"/><path class="cls-2" d="M1201.86,450.48v1.79c.82-.17,1,.67,1.8.59-.22-2.24.87-2.84,1.32-4.25C1203.76,448.93,1203.08,450.06,1201.86,450.48Z"/><path class="cls-2" d="M1195.54,317.78c.28-1.37,1.33-3,.45-4.24C1193.35,312.67,1194,317.67,1195.54,317.78Z"/><path class="cls-2" d="M1201.83,410.46c-1.76,1.87-3.8,3.27-4.91,6.07C1199.56,416.1,1202.07,412.77,1201.83,410.46Z"/><path class="cls-2" d="M1196.88,357.74c.6-1,1.58-1.5,1.34-3.63a1.76,1.76,0,0,0-2.66,0C1195.91,355.44,1195.78,357.42,1196.88,357.74Z"/><path class="cls-2" d="M1200,324.4a15.78,15.78,0,0,0-4-4.22C1196.37,323.79,1198.45,325.14,1200,324.4Z"/><path class="cls-2" d="M1198.15,401.28v3.34h.94C1198.89,403.37,1199.74,400.56,1198.15,401.28Z"/><path class="cls-2" d="M1201.38,431.65c-.52-1.65-1.88-2.26-3.1-3C1198.59,430.64,1199.42,431.91,1201.38,431.65Z"/><path class="cls-2" d="M1130.73,423v3.36c.36.13.93,0,1,.68,1.48.07,1.64-1.7,1.91-3.38C1132.1,424.19,1132.15,422.51,1130.73,423Z"/><path class="cls-2" d="M1124.39,342.73c.31-2.06,2.16-4.36.87-6.67-2.38.62-1.66,5.39-4,6.07C1123,343.27,1123,340.57,1124.39,342.73Z"/><path class="cls-2" d="M1127.5,330c-.22-4.6-3.06,1-4-3-.11.49-.38.71-.88.61-.07,1.52.65,1.89.89,3.07C1125.59,330.47,1125.45,329.06,1127.5,330Z"/><path class="cls-2" d="M1122.61,324.54c.54-1.82.16-5,1.33-6.06h-2.22C1121.93,320.58,1121.05,324.2,1122.61,324.54Z"/><path class="cls-2" d="M1133.25,336.65c.08,2.51,1.84,2.7,1.41,5.92-.07,0-.09.09-.15.18-1.67.05-2.52,1.24-2.57,3.59a2.59,2.59,0,0,0,2.89-1c.51,0,.81-.36,1-.92a1,1,0,0,1,1.44.12C1137.78,339.41,1136,337.32,1133.25,336.65Z"/><path class="cls-2" d="M1187.07,317.77a5.3,5.3,0,0,0-2.26.75,3.45,3.45,0,0,1-.12-3c-2.32.4-.74,2.22-1.42,4.59a4.24,4.24,0,0,0,2.48,6.13c-.07-2.16-1.65-2.21-1.34-4.86C1186.24,321.53,1187.16,320.28,1187.07,317.77Z"/><path class="cls-2" d="M1206.83,477.61c.08-1.94,0-3.69-1.45-3.39a3.23,3.23,0,0,0,0,3.39Z"/><path class="cls-2" d="M1152.24,421.66c.19-1.33,1.86-.55,1.43-2.72-1.49-1.09-1.94,2.5-2.39.67.28-2.18-.16-3.43-.94-4.07-3.44,2.12-5.73,5.91-7.18,10.83C1145.22,423.64,1147.85,419,1152.24,421.66Z"/><path class="cls-2" d="M1147,514.2c2,.61,2.06-1.65,1.92-4.05C1146.92,509.57,1146.92,511.74,1147,514.2Z"/><path class="cls-2" d="M1147,458.79c-.63.85-.72,3.34.5,3.4C1148.14,461.31,1148.22,458.88,1147,458.79Z"/><path class="cls-2" d="M1149.38,433.15a7.61,7.61,0,0,0,2.87-4.79c-2.46-.32-3.81,1-3.83,4.07C1148.8,432.59,1149.36,432.47,1149.38,433.15Z"/><path class="cls-2" d="M1154.62,396.63c1,.4,1.36,1.66,2.89,1.36,0-1.59.81-2,.47-4.06C1156.22,393.93,1155.42,395.24,1154.62,396.63Z"/><path class="cls-2" d="M1158.45,423a19.84,19.84,0,0,0-.92,4.07c1.46.6,2.21,2.24,3.83,2.65A5.46,5.46,0,0,0,1158.45,423Z"/><path class="cls-2" d="M1146.49,444.59c-1.45,0-4.62-2-5.23.71.68.82.91,2.28,1,4A5.21,5.21,0,0,0,1146.49,444.59Z"/><path class="cls-2" d="M1140.44,371.79c0-2,2.85-.12,2.63-2.44-1.2-.28-3.82-1.18-4.88.6C1139.25,370.16,1139,372.08,1140.44,371.79Z"/><path class="cls-2" d="M1130.64,334.87c-1.19-.86-1.55-2.76-3.13-3-.64.76-.29,2.84-.9,3.58C1128.36,337,1129.94,339.09,1130.64,334.87Z"/><path class="cls-2" d="M1208.08,424.36c.17-1.44-.84-1.29-.46-3C1205.6,420.92,1206,425.44,1208.08,424.36Z"/><path class="cls-2" d="M1205.25,340.45c-.83,2.25,0,7,2,7.45C1208.44,345.11,1206.88,341.35,1205.25,340.45Z"/><path class="cls-2" d="M1209.86,434.71c.2-2.35-.6-3.23-1.79-3.69C1207.23,432.33,1208,435.19,1209.86,434.71Z"/><path class="cls-2" d="M1207.23,392.47c.24-3.24-2.19-2.74-1.45-6.73C1204,386.24,1204.36,394.21,1207.23,392.47Z"/><path class="cls-2" d="M1212,397.2c.15-2.94-.34-4.89-1.45-6.09-2.55.19-3.81,2.29-4.31,5.44C1208.37,395.44,1209.25,398.43,1212,397.2Z"/><path class="cls-2" d="M1190.27,418.33c1.43.55.93-1.6,1.77-1.8,0,2.48,1.43,2.89,1.31,5.43,1.74-.72,3-2,2.7-5.46C1193.8,416.71,1190.63,414.36,1190.27,418.33Z"/><path class="cls-2" d="M1175.09,337.77a15.19,15.19,0,0,1-1.34,4.86c2.26-.61,3.63,2.93,6.22,3.65C1180,343.56,1176.91,340.05,1175.09,337.77Z"/><path class="cls-2" d="M1159.9,433.13c-2.76.59-4,3.33-5.73,5.4C1156.17,439.3,1160.12,437.59,1159.9,433.13Z"/><path class="cls-2" d="M1188.06,334.42c.74-1.24,1.74-2.12,1.44-4.77-1.29,0-2.72-.2-3.35.71C1186.25,332.49,1186.48,334.36,1188.06,334.42Z"/><path class="cls-2" d="M1184,334.76a3.89,3.89,0,0,1,.44-1.86,3.24,3.24,0,0,1-1.33-1.2c-.11-.47,0-1.15-.42-1.15C1182.54,332.67,1182.94,334.13,1184,334.76Z"/><path class="cls-2" d="M1196.24,362.8c-1.94-.75-3.09-2.45-3.39-5.4-1.48-.33-1.53,1.42-1.44,3.35.72.13,1.78-.25,1.91.67.66,7-2.71,8.34-4.29,12.18-1.49.39-1.46-1.27-2.37,0a17.25,17.25,0,0,0,.46,5.4c3.09,1.2,7.43,2.45,8.16-2.7-1.54-1.95-2.07,1.6-3.85,1.36-1.19-3.5,2.82-6.66,4.8-8.83Z"/><path class="cls-2" d="M1195.3,408.72c-1.52-.19.73-5.57-1.46-4.74v4.74c-3.55,1.3-8.88,9.26-5.24,14.19C1190.12,417.12,1191.41,411.16,1195.3,408.72Z"/><path class="cls-2" d="M1046.51,373.16c-.94.17-1-.74-1.92-.67.52,3-1.63,2.24-1.46,4.74C1045.38,377.45,1046.47,376,1046.51,373.16Z"/><path class="cls-2" d="M1025.72,384.12a1.52,1.52,0,0,0-2.72-.6v1.75C1024.28,385.42,1025.25,385.15,1025.72,384.12Z"/><path class="cls-2" d="M1017.81,390.77c.51-1.54,1.49-2.37,1.44-4.7-1.82-1.75-4.41-1.09-4.79.68C1016.74,386.5,1016.07,390.29,1017.81,390.77Z"/><path class="cls-2" d="M1023.59,427.93c-1.24.56-2.61.88-2.41,3.38C1023.13,431.81,1023.93,430.67,1023.59,427.93Z"/><path class="cls-2" d="M1107.08,384c-1-.63-1.45-2.06-3.13-1.85-.49,2.52-5,4.48-.44,5.5C1103.51,383.41,1106.06,386.19,1107.08,384Z"/><path class="cls-2" d="M1105.27,361.57a3.23,3.23,0,0,0-3.54,3C1103.05,365.84,1105.4,364.27,1105.27,361.57Z"/><path class="cls-2" d="M1109.27,370c-.11-2.26-1-3.54-3.07-3C1106,369.53,1107.71,371.73,1109.27,370Z"/><path class="cls-2" d="M1102.56,341.56c-.5-.73-1.54-.69-2.64-.6C1099.67,344.65,1102.26,344.3,1102.56,341.56Z"/><path class="cls-2" d="M1099.06,354.9c-.51-2.78-1.8-4.41-4-4.82C1094.86,353.48,1097.3,356,1099.06,354.9Z"/><path class="cls-2" d="M936.28,389.14c1.93-.25,3-1.61,3.09-4.26C937.81,383.5,936.55,386.83,936.28,389.14Z"/><path class="cls-2" d="M935.93,503c0,1,0,2.06,0,3.05C939.12,506.81,939.13,502.27,935.93,503Z"/><path class="cls-2" d="M925.49,413.24c0-1.68-.68-2.56-1.9-2.68a5.73,5.73,0,0,0-.49,3.36A2.39,2.39,0,0,0,925.49,413.24Z"/><path class="cls-2" d="M1055.14,516.12c.57.83,1.93.61,3.09.58.47-2.53,1.44-4.45,1.33-7.83C1056.22,508.78,1056.15,513.12,1055.14,516.12Z"/><path class="cls-2" d="M1059,316.78c-.3,1.83-1.67,2.15-1.29,4.84,1.87.37,1.37-2.54,2.2-3.63,0,.35.35.73.45,0C1059.69,317.86,1059.6,317,1059,316.78Z"/><path class="cls-2" d="M1073.25,348.89c-.43-2.3-.39-5.13-.9-7.29-2.73,1.94-5.45,3.87-8.89,4.89C1066.14,350.12,1070.14,355.55,1073.25,348.89Z"/><path class="cls-2" d="M1064.67,397.47c-1.17-1-3.13,1.56-2.84,4.71C1064,402.33,1064.55,400.19,1064.67,397.47Z"/><path class="cls-2" d="M1061.79,353.55h-1.89c-.36,2.55.5,3.27,1.89,3.36Z"/><path class="cls-2" d="M1069.32,451.27c-.66-2-3.3-2.25-4.91-1.17a3.27,3.27,0,0,1-.43,1.79C1064.72,454,1069,453.42,1069.32,451.27Z"/><path class="cls-2" d="M1119,323.38c-.92,1.12-.73,3.82-2.67,3.62-.94-.4-1.41-1.29-2.22-1.79.21,3.11,3,5.31,5.35,3.59C1117.44,326.44,1121.31,325.21,1119,323.38Z"/><path class="cls-2" d="M1073.66,327.07c-2.59.93-2,6.1-4.42,7.28a23.65,23.65,0,0,0,4,4.84C1075.21,335.37,1071.71,332.17,1073.66,327.07Z"/><path class="cls-2" d="M1100.82,350.05a3.47,3.47,0,0,0-3.11-4.88C1098.21,348.12,1099.49,347.57,1100.82,350.05Z"/><path class="cls-2" d="M1090.13,321.57c-1.25-1.59-2.2.58-3.56.66a4.32,4.32,0,0,0,.44,2.39C1088.07,323.69,1090,323.87,1090.13,321.57Z"/><path class="cls-2" d="M1076.79,333.71c.55-2.31,2.57-2.57,2.67-5.46-1.43.36-2,1.81-3.57,1.84C1075.88,331.7,1075.66,333.67,1076.79,333.71Z"/><path class="cls-2" d="M1078.5,317.07c-1.45-.34-1.34,1.59-1.86,2.59-.87,0-.84,1.22-.75,2.57,1.19.16,1.48-.85,1.32-2.45C1078.29,319.75,1078.7,318.81,1078.5,317.07Z"/><path class="cls-2" d="M923.37,403.67c.35-2.09-.24-2.85-1.76-2.41-.86,1.52,1.23,3.22-.44,4.86-.76-.08-3.64-2-3.56.59,2.65,3.64,9.32-2.36,9.79,7.86.49,1.45,2-1.26,2.68.59-1.91,1.3-3.51,3-5.77,3.66.2,6,.7,9.32-3.6,9.68.26,2.86-.12,3.08.92,4.26,1.89-.07-1.37-1.71,1.77-1.2,0-1.61-.25-3.57.92-3.65,2.32.23,4.26,1,4.88,3.61-.34.14-.5.54-.43,1.21-1.31.09-2.93-.3-3.59.62-.87,2.18.17,2.25.45,4.29,1.64.17,4.39-1.16,3.58,2.34,2,.18,1.83-2.69,4-2.38,0,.57.32.72.42,1.19-1.2,1.84-1.17,5.32-4.44,4.25.18,2.49-.15,4.23-1.76,4.28a2.7,2.7,0,0,1-1.17-1.87,4.1,4.1,0,0,0-.17-1.7c0-.4,0-.83,0-1.29.82-.26,2.67.83,2.2-1.23-1.58.18-4.19.71-6.68-.63.06,3.37-.79,5.4-3.53,4.87-.3,3.18,1,5-.46,6.68-1.37-1.48-3.93-2.76-4.47.64a8.31,8.31,0,0,0,5.38,1.78c.26,1.23-.55,4,.44,4.26a6.3,6.3,0,0,1,4.3-1.28,2.8,2.8,0,0,0-.15.3c1,1.55,3.2,1.39,4.33,2.73,0-.11,0-.25,0-.32a5.62,5.62,0,0,1,.09,1.58,19.5,19.5,0,0,1-1.39,1.73c-1.77-.41-2.54-2.15-4.09-2.92-1.7,3.54-4.43,5.34-7.55,2.42-1.21,2.12,0,4.87,1.75,4.84,1.21-.08.66-2.35,1.83-2.43.65,1.5,2.74,1,2.61,3.62a17.58,17.58,0,0,1-1.28,4.86c.17.31.32.55.51.89-.51,1.7-.88,3.42.35,5.27.94.69,1.73-.4,2.28-.56.19.39.38.84.57,1.29,0,.85,0,1.83-.49,2-1.36,1.84-1.21-2.25-3.34-1.38-3.79,6.22,1.83,5.73,5.07,4.05a13.46,13.46,0,0,1-.52,5.95,3.18,3.18,0,0,0-3.53-1.16v2.39a6.56,6.56,0,0,1,5.11.07A3.86,3.86,0,0,0,927,495c0-.78.58-.68,1-.82.29.11.54.25.81.38,1.16-.46.91-2.81,2.22-3.07,0,1.34,1.09,1.3,2.24,1.22,1.05-.76-1-2.26.4-3,3.64.63,1.23,4.07.89,7.26,6.07-1.24,5.68,6.42,5.79,13.31-.76-.78-1.55.15-1.87,1.55-.58-1.65-1.74-2.46-3.82-2v3.39c4-3.11,3.24,4.91,7.17,4a10.12,10.12,0,0,1,.48-5.31c1.32.73,2.83.53,4.27-1.08.35-3.89-.78-5.8-2.67-6.65a1.39,1.39,0,0,1-2.7,0c-.33-2.94,1.76-2.55,2.71-3.68.54,2.71,4.6,3.19,5.77,3.05-.48-3.32-1.2-9.95.89-11.51-1.45-2.66-4.18-3.64-6.66-4.85,0,1.62.25,3.58-.91,3.65-3.1.87-5.34.57-5.76-2.95a3.53,3.53,0,0,0,.72-1.75,1.76,1.76,0,0,0-.57-.88c1.57-1.17,5.26.55,5.14-2.92a26.07,26.07,0,0,1-2.93-2.29,1.37,1.37,0,0,1,.28,0,10.53,10.53,0,0,1,.61-6.84,5,5,0,0,0,.7.08c-.2-4.14,2.16-4.78,3.14-7.31-1.24-1.2-1.76.06-3.15,0-.2.87.51,3-.36,3a11.31,11.31,0,0,0-.47-1.16c-.06.41-.12.73-.18,1.08-3.83-.55-3.87-3.54-7.44-4.11-.87,1.8-1.65,3.78-3.08,4.84-.12-.81-.19-1.75-.23-2.65a9.43,9.43,0,0,0,4.21-7.21c-1.73-1.14-3-.92-4.17-.07.06-.57.11-1.13.16-1.58a3.31,3.31,0,0,1-1.41-1,14.4,14.4,0,0,0,.6-5.34,3.63,3.63,0,0,0,4.41.85c.71-3.66,1.19-7.65,3.07-9.69.94.47,1.71,2.47,2.68,1.19-.67-1.85.12-2.39-.47-3.66-.57-1.47-1.62.74-1.77-.6-.17-4.32,1.87-5.51,1.76-9.64-1.66-1.17-4.79-.33-4.44-4.27.66-.15.75-1,1.34-1.22a13.1,13.1,0,0,0,1.34,2.44c1.24-1.37,3.57-1.17,4.43-3.07-.91-3.86.07-5.61.92-8.47a2.82,2.82,0,0,0-2.81-.26c-.17-.5-.41-.87-.88-.92a12.13,12.13,0,0,0-.42,1.16l-.38,0a5,5,0,0,0,.34,2.05c0,.06,0,.09,0,.17h0a3.53,3.53,0,0,0,1.41,1.46,4.2,4.2,0,0,1-.88,1.78c-.89-3.06-4.66-2.31-5.78-.58-1-2.29.7-2.6.89-4.84-.93-2-2.73-2.72-2.64-6.08,2.58,1.94,4-.94,5.75,1.22,2.46-1,.93-5.26,2.24-6.64,1.6,1,2.47,3.11,3.53,4.84,2.23-1.7,6-1.12,6.68-4.87-4-.9-6.7-.1-10.22-1.84-.56-1.88-1.63-3-1.36-6-2.17.23-3.85-.86-2.66-3.64-1.66.43-2.11-.72-3.55-.58a27.28,27.28,0,0,0,2.67,11.48C930.57,404,927.35,406.45,923.37,403.67ZM926,452.14c-2.14.12-2.28,2.86-4.34,3.05-.45-1.57-2.61-.84-3.1-2.41,2.22-1.39,2.39-5.63,4.43-7.3a4,4,0,0,1,1.35.73,5.78,5.78,0,0,0-1.19,4.25c.92-.21,1.92-1.41,2.58-2.85.48.71,1,1.44,1.5,2.16C926.76,450.57,926.37,451.36,926,452.14Zm17.49,40.56c2-.34,2.43,1.56,2.67,3.65-.59-.85-2.11-.38-2.67-1.21ZM941,510.93c0,.09-.05.17-.06.25a3.26,3.26,0,0,0-.45-.77C940.62,510.59,940.77,510.76,941,510.93Zm-5.05-37.57c1.08-1.46,2-1,3.13-.52a49.85,49.85,0,0,1-2.3,4.91C936,476.86,935.83,475.33,935.91,473.36Zm-.3,9.49a2.84,2.84,0,0,1,3-2.8,29.82,29.82,0,0,1-2.18,4.8A1.71,1.71,0,0,1,935.61,482.85ZM931.89,477c1.22-.42.88,1.22,1.79,1.22a50.1,50.1,0,0,0-1.35,5.49c-1.53.43-1.89-.72-2.66-1.25C930.41,480.65,931.56,479.38,931.89,477Zm-.48-41.22c-1.95.48-1.78-2-1.8-4.2C931.49,431.24,930.81,434.37,931.41,435.74Z"/><path class="cls-2" d="M1082.12,337.94c1-1.42,1.06-7.48-.42-9.08.84,4.61-1.7,4.56-1.78,7.9C1080.74,337,1080.73,338.52,1082.12,337.94Z"/><path class="cls-2" d="M717.34,276.49v4.07h2.39C720.56,278.27,719.5,276.36,717.34,276.49Z"/><path class="cls-2" d="M660.09,477.93c-1.39,3.51.86,5.37,3.35,5.39.44-2.11,1.58-3.14,1.93-5.41C662.41,477.64,662.21,480.17,660.09,477.93Z"/><path class="cls-2" d="M674.53,595.45c-4.36.19-4.7,6-9.56,5.39-.12,2.17-1.1,3-1,5.43C669.41,609.72,677.48,603.86,674.53,595.45Z"/><path class="cls-2" d="M661,396.83c.26,1.68.38,3.49,1.91,3.39,1.87,0,2.79-1.5,4.31-2-1.38-2.76-2.22-6.3-4.74-7.43-2.72,1.92-4.6,4.82-5.78,8.77C659.23,400.17,659.22,397.28,661,396.83Z"/><path class="cls-2" d="M686.34,381.23c-2.49-.26-4,.72-3.85,4.09,2,1.82,2.42,1,4.77,0C687.51,383.18,686.62,382.67,686.34,381.23Z"/><path class="cls-2" d="M684.56,572.42c-1.07-1.24-3.46-.33-3.36,2.06C682.17,575.65,685.29,575.76,684.56,572.42Z"/><path class="cls-2" d="M681.06,385.33c-1.49-.6-2-2.57-3.79-2.7-1.28,2.64,1,5,2.37,6.1C680.17,387.66,681.2,387.27,681.06,385.33Z"/><path class="cls-2" d="M656.71,437.38c.49-1.54-.14-6.26-2.4-6.05C653,434.56,654.63,436.92,656.71,437.38Z"/><path class="cls-2" d="M682,281.29c-3.31-.44-3.51,6.46-1,7.47C682.25,287.54,682,284.21,682,281.29Z"/><path class="cls-2" d="M678.64,298.84c2.51.22,3.62,2.22,5.2,2,.41-.67.27-4.81-.43-6.07-.91,3-2.12,2.35-4.79,2Z"/><path class="cls-2" d="M671.36,226.55c1.79.74,3.31-1.75,5.27.72,1-2.4,1.54-5.54,2.88-7.47-.17-2-.83-3.31-1.94-4-2.69,1.07-5.55,2-7.61,4C669.47,223.46,671.7,223.18,671.36,226.55Z"/><path class="cls-2" d="M678.65,251.42l2.69,0C681.52,248.52,678.73,249.7,678.65,251.42Z"/><path class="cls-2" d="M654.64,241.76h1.79c-.19-1.78-1.54-2-2.26-3,0,.39,0,.74-.41.62.11.47,0,1.18.41,1.22C655,239.12,653.87,241.25,654.64,241.76Z"/><path class="cls-2" d="M684.77,232.64c-1,.42-3.33-1.1-2.86,1.38A1.63,1.63,0,0,0,684.77,232.64Z"/><path class="cls-2" d="M665.25,287.38l0,2c1-.53,2.57-.38,2.86-2A1.8,1.8,0,0,0,665.25,287.38Z"/><path class="cls-2" d="M684.42,240.52c3.08-.58.49-5.31,3.57-4.23l0-1a20.17,20.17,0,0,0,2,0c.06-2.6-.79-3.87-2.4-4-.2,1.29-1.34,1.24-1,3.33C684.77,235.26,685.73,238.15,684.42,240.52Z"/><path class="cls-2" d="M660,287.4v3.37h1C660.66,289.47,661.55,286.7,660,287.4Z"/><path class="cls-2" d="M691.76,591.36a5.79,5.79,0,0,0-.5-3.34c-1.67-.12-2.77.57-2.4,3.35C690.53,590.8,690.9,592.65,691.76,591.36Z"/><path class="cls-2" d="M691.68,474.48c-1-1.22-4-1.11-3.84,1.33C689.11,476.63,691.59,477.22,691.68,474.48Z"/><path class="cls-2" d="M693.62,552.14l-2.84,0c.09,1.32-.56,1.49-.48,2.7C691.54,556.31,694.49,555.86,693.62,552.14Z"/><path class="cls-2" d="M695.06,537.32c.25-4-1.43-4.1-3.35-3.37C691.46,537.36,693.53,538.29,695.06,537.32Z"/><path class="cls-2" d="M690.66,378.56c0-2-1.29-2.29-1.46-4.06-3.74.77-5.43-1.33-8.62-1.35v2.73C684.07,378.05,686.36,380,690.66,378.56Z"/><path class="cls-2" d="M701.76,544.77c.58-1.81,1-2.09.45-4.09-1.76-.23-2.44,1-2.84,2.69C700.28,543.67,700.55,544.85,701.76,544.77Z"/><path class="cls-2" d="M700.3,515.72c0-3.21-1.11-4.76-3.37-4.75C695.2,514,698.17,518.14,700.3,515.72Z"/><path class="cls-2" d="M694.08,523.83c-2.7-1-3.24,3.47-2.37,5.43C693.89,529.53,695.31,526.21,694.08,523.83Z"/><path class="cls-2" d="M692.15,482.59c1.59,2.87,3.56-.49,3.79-3.4C694.19,477.37,692.37,480.13,692.15,482.59Z"/><path class="cls-2" d="M696.88,440.71c-.9-1.31-.85.4-2.38,0,.16,1.56.48,2.9,1.43,3.36C696.14,442.79,697.3,442.84,696.88,440.71Z"/><path class="cls-2" d="M692.57,446.12c.19,3.14,1.89,4.11,3.84,4.74C696.17,447.77,695.05,446,692.57,446.12Z"/><path class="cls-2" d="M681.14,476.53c-.52-4.49,2.67-3.89,2.82-7.41-.46-2.7-1.16-5.07-2.85-6.08-1.36,3-3,2.41-4.77,4,1.7,8.7-.44,16.49-.43,25,2.37-2.64,4.05,1.43,5.73,2,2.37-3.65,1.6-7.62,3.78-11.5C684.48,479.87,682,479.43,681.14,476.53Z"/><path class="cls-2" d="M669.07,350.18c2.12.57,1.53-4.05,0-4Z"/><path class="cls-2" d="M686.72,261.7c-1.49-.29-1.54,1.42-1.44,3.37C686.83,265.28,687.82,263.26,686.72,261.7Z"/><path class="cls-2" d="M706,490.67c-.57-2.61-2.12-3.82-2.92-6.07-1.52,1.65-2.76,3.75-4.26,5.42C701.43,490.41,704.47,494.59,706,490.67Z"/><path class="cls-2" d="M680.72,578.52c-.88,1.32,0,1.74,0,3.4h1.43A3.1,3.1,0,0,0,680.72,578.52Z"/><path class="cls-2" d="M677.65,294.82c-1.36-1.24-1.41-4.3-2.89-5.45C673.34,293,675.4,298.65,677.65,294.82Z"/><path class="cls-2" d="M665.73,359.68a29.71,29.71,0,0,0,4.8,4c.19-1.27,1.35-1.22.91-3.38-1.94,0-2.91-1.65-5.22-2.69C666.24,358.52,665.58,358.6,665.73,359.68Z"/><path class="cls-2" d="M674,569.78c.2,4.59,1.47,5.7,0,9.44.85.87,2.79-1.13,4.35-1.35-.21-5-1.3-5.07-2.39-8.12,1-.81,1.83-1.85,2.89-2.72,1.35-4.77-3.94-7.76-4.85-2.68.84,1.36,2,2.18,1.46,5.42Z"/><path class="cls-2" d="M672.45,353.59c-.65.85-.29,3.2-1,4,1.59.17,2.33-.81,2.39-2.7C673.18,354.77,673.06,353.82,672.45,353.59Z"/><path class="cls-2" d="M667.56,292.67c1.29.09.58,2.85,2.25,2.4a1.26,1.26,0,0,1,.17-.13c.25,1.75-.06,3.2-.45,6.62,2.34,0,3.62-1.65,4.28-4.06-.51-1.91-2.79-1.38-2.51-4.45a6.28,6.28,0,0,0,.28-1c-.34-.16-.53-.53-.44-1.21C669.61,290.93,667.72,290.6,667.56,292.67Z"/><path class="cls-2" d="M671.53,469.78c.3-2.39,1.93-2.63,1.92-5.41-3.15-.23-5.33,1-5.73,4.74C668.41,470.15,670.17,469.69,671.53,469.78Z"/><path class="cls-2" d="M666.73,450.89c.18-1.38,1.32-1.31,1.47-2.72-1,0-.61-1.85-1.91-1.33C665.64,447.69,665.48,450.82,666.73,450.89Z"/><path class="cls-2" d="M665.34,477.25c1.11-1.38,2.69,1.25,3.84-.69-1.79-.24-1.29-3.59-3.37-3.38C665.85,474.76,665,475.17,665.34,477.25Z"/><path class="cls-2" d="M786.49,606.05c.62-.34,1.1-6.08-.51-5.43C785.24,602.08,784.35,605.94,786.49,606.05Z"/><path class="cls-2" d="M778.53,338.66c-.21,2-.63,4.63,1.06,5.26.59-.83.91-4.71.14-6.19a2.19,2.19,0,0,0,.43-1c-2.27-.54-2.92-.2-4,1.81A2.82,2.82,0,0,0,778.53,338.66Z"/><path class="cls-2" d="M775.85,481.08c-1.59.05-1.17,2.87-2.4,3.39C775.18,484.67,776.69,482.52,775.85,481.08Z"/><path class="cls-2" d="M784.84,352.06a5.42,5.42,0,0,1-.49,3.31c1,1.43,3.09,1.1,4.31,2,0-2,1.78-3.49.47-5.36A4.09,4.09,0,0,1,784.84,352.06Z"/><path class="cls-2" d="M788.29,464.18c-4.31-.2-6.8,8.59-5.26,12.18.64-1.38,1.1-2.95,2.37-3.42.07-1.65.07-3.22-.47-4C786.29,467.7,788.92,468.21,788.29,464.18Z"/><path class="cls-2" d="M767.71,521.65c.39-1.51,2.28-.91,2.44-2.7-1.15.28-1-1.25-2.44-.7C767.45,518.66,766.6,521.45,767.71,521.65Z"/><path class="cls-2" d="M761.93,411.9c1.39.16,1-2,1.33-3H761.5C761.31,410.27,762.32,410.15,761.93,411.9Z"/><path class="cls-2" d="M766.31,512.88c.07-4-.1-7.58-2.9-7.47-.49,2.7-.29,5.85-.46,7.47Z"/><path class="cls-2" d="M762.44,506.11c.13-1.28-.54-1.47-.46-2.68-3,0-3.44,1.77-2.88,5.4C760.5,508.27,761,506.56,762.44,506.11Z"/><path class="cls-2" d="M766.77,526.36l0,2.76C770.63,529.32,769.45,522.86,766.77,526.36Z"/><path class="cls-2" d="M689.57,257.63c1.68-.09,2,1.66,3.36,2-.66-2.18-.18-6-2.36-6.1C689.29,253.65,689.57,255.84,689.57,257.63Z"/><path class="cls-2" d="M779.31,629.7c.84-1.69,2.06-2.92,2.37-5.42-.6-.76-1.69-.76-2.85-.64C779.72,625.21,777.89,628,779.31,629.7Z"/><path class="cls-2" d="M764.91,581.1c-.22.47-2-.39-2.4,0-1.61,1.47-1.84,8.13.49,8.78.14-10.42,9-12,7.67-22.32C764.49,567.35,767.14,576.42,764.91,581.1Z"/><path class="cls-2" d="M762,511.52c-1.68-.59-2.27,1.51-3.29,0l0,3.38C760.74,515.8,762.26,515.48,762,511.52Z"/><path class="cls-2" d="M783.89,404.76c.21-1.17.64.12,1.46,0-.34-2.08.48-2.46.46-4C783.87,401.23,783.64,403.45,783.89,404.76Z"/><path class="cls-2" d="M780.55,389.18c.92.32,1.25,1.49,2.42,1.35,1.74-.4,1.76-3.32,4.28-2.7a15.34,15.34,0,0,0-.93-6.06c-1.8,2-3,4.81-5.78,5.42Z"/><path class="cls-2" d="M782,417.57c1,.21.92,1.84,1.89,2.05.8-.9,0-4.05,1.45-4.07,0,1.12,1.33.38,1.43,1.32.6,3.08-1.67,2.14-1.9,4.1,1.26,0,.5,2.88,2.37,2-.89-5.8,3.08-4.69,2.88-9.48C786.47,412.05,783.91,414.63,782,417.57Z"/><path class="cls-2" d="M784,555.38c-2.36-1-3.72,2.75-2.41,4.73C781.9,557.81,784.33,558.45,784,555.38Z"/><path class="cls-2" d="M784.47,527c-1.78-.58-1.69,3-.93,4C785.28,530.9,784.86,528.68,784.47,527Z"/><path class="cls-2" d="M769.69,536.5c-.22-2.43-.8-4.33-2.41-4.71C765.88,534.32,767.48,538.78,769.69,536.5Z"/><path class="cls-2" d="M707.3,290.69c1.88,0,2.85-1.38,2.87-4.06C708.32,286.71,707,287.48,707.3,290.69Z"/><path class="cls-2" d="M704.41,254.2c2.2.32,4-2.45,2.86-4.74C705.76,250.15,703.63,252.43,704.41,254.2Z"/><path class="cls-2" d="M711.59,267.69c.24-2.06-.41-3-1.92-2.66-.13.89-.68,1.31-.48,2.68C710.11,269,710.05,267.34,711.59,267.69Z"/><path class="cls-2" d="M705.86,246.76c.93-4.37-3.38-4.35-2.4,0Z"/><path class="cls-2" d="M709.67,277.84a5.77,5.77,0,0,0,.48,2.76c2.06-.09,2.88-1.87,3.33-4.09C712.63,275.46,710.55,276.81,709.67,277.84Z"/><path class="cls-2" d="M696.26,255.58c.18-1.57,1-2.93-.46-3.38C695.12,253.07,695.05,255.55,696.26,255.58Z"/><path class="cls-2" d="M691.6,298.07a6.73,6.73,0,0,1-.25-2.82,1.8,1.8,0,0,0,.2.23,4.13,4.13,0,0,0-.16-.61c.14-1.36.23-2.55-.68-3.49a1.53,1.53,0,0,0-.12.42c-.71-2.3-1.56-4.4-2.41-6.5H684.8c1,4,3.2,6.25,5.33,8.6a15.06,15.06,0,0,1-.32,4.2c1.75.45,2.27,2.54,3.61,3.56C694.19,298.6,691.78,299.83,691.6,298.07Z"/><path class="cls-2" d="M719.55,207.75c.28-3.77-3.18-2.15-4-1.82C716.89,206.51,717.54,208.08,719.55,207.75Z"/><path class="cls-2" d="M701.54,253.53c.15-1.57.76-2.51.49-4.71-2.17-.35-3.09,1-2.85,4.07A2.23,2.23,0,0,0,701.54,253.53Z"/><path class="cls-2" d="M701.06,275.16c-.81,1.56-3.4.59-2.87,4.06C700.18,281.47,702.76,277.83,701.06,275.16Z"/><path class="cls-2" d="M756.52,284.63c-.11-1.15.52-1.36.46-2.42-1.28-.85-4.54.09-4.9,2.42C754.25,285,754.16,284.78,756.52,284.63Z"/><path class="cls-2" d="M754.28,241.59c1.64.27,3,.12,3.11-1.79C756.38,238.62,754.2,239.5,754.28,241.59Z"/><path class="cls-2" d="M728,437.24c2.28.95,2.89-2.45,1.91-4.06C727.84,432.58,727.86,434.81,728,437.24Z"/><path class="cls-2" d="M729.29,204.72c-1.76-1.5-3.46-5.23-6.2-3.65A3.68,3.68,0,0,0,729.29,204.72Z"/><path class="cls-2" d="M731.85,450.07c-1.94-.45-2,1.79-2,4.11C731.34,453.92,732.93,451.84,731.85,450.07Z"/><path class="cls-2" d="M721.32,200.46v-4.22c-1.09-.09-1.34.92-2.22,1.19C719.37,199.14,719.56,200.83,721.32,200.46Z"/><path class="cls-2" d="M733.59,238.59c.18-2.3-.15-3.81-1.91-3.36l0,2A15.19,15.19,0,0,0,733.59,238.59Z"/><path class="cls-2" d="M769.22,631.75h-1.88c-.08,1.71-.12,3.26.95,3.41C768.5,633.86,769.66,633.89,769.22,631.75Z"/><path class="cls-2" d="M748.66,573.68c.91.31,1.18,1.49,2.36,1.37.77-1.81,1.09-2.56,0-4.06C749.49,570.85,748.74,571.82,748.66,573.68Z"/><path class="cls-2" d="M750,561.51v3.42c3.47,0,4.23-1.77,8.16-2,.49-2,.92-4.12,2.87-4.12,1.55.34,1.68,2.6,3.35,2.71,1.6-.2,2.14-2,4.28-1.31.46-2,1.6-5.41.45-7.44-2,.45-1.91,4-3.79,4.74-2.67-1.12-2.24-2.78-5.73-4.73C757.91,557.74,756.23,562.81,750,561.51Z"/><path class="cls-2" d="M760.08,526.37c.27,3.72,1.94,5.37,1.9,9.46C766.37,534.71,761.31,528.16,760.08,526.37Z"/><path class="cls-2" d="M746.72,503.44c2.38.72,4.46.24,7.58.65v-3.38C751.84,499.25,747.86,500.91,746.72,503.44Z"/><path class="cls-2" d="M773.52,552c-1.24.79-.95,3.65-1,6.11C774.77,561,776.34,552,773.52,552Z"/><path class="cls-2" d="M776.81,538.53c.52-3.85-1.18-4.65-2.81-5.43a6.28,6.28,0,0,0-1,4.75C773.71,538.9,775.45,538.42,776.81,538.53Z"/><path class="cls-2" d="M772.05,581.09c-.26-4.19,2.2-6.91-.91-8.11C771.13,574.71,770,579.6,772.05,581.09Z"/><path class="cls-2" d="M740.51,577.78a1.62,1.62,0,0,0-2.86.66c.85.61.6,2.77,2.4,2C740.21,579.53,740.7,579.16,740.51,577.78Z"/><path class="cls-2" d="M738.05,494a2.58,2.58,0,0,0,2.42.69C741.5,490.75,737.41,490,738.05,494Z"/><path class="cls-2" d="M748.11,512.19c.06-2.27-1.39-2.48-2.37-3.35C745.42,511.5,746.78,511.84,748.11,512.19Z"/><path class="cls-2" d="M742.9,531.14c.35-2.3-1.78-1.09-1.91-2.68-.72-1.94,1.26-3.46,0-4.08-.42,1-1.57,1-2.42,1.34.32,2.95,1.2,5.1,1.46,8.14-.93.27-2.06.24-1.92,2,.43,1.2.87,2.33,2.39,2,1.65-4,5.35-5,5.75-10.81C744.22,527.15,743.65,529.28,742.9,531.14Z"/><path class="cls-2" d="M746.37,399.13a2.79,2.79,0,0,0,0,3c1.19.2,1.48-.84,1.34-2.4A1.78,1.78,0,0,1,746.37,399.13Z"/><path class="cls-2" d="M744.06,281.59c-.32,1.89.78,1.83.45,3.65,1.16-.08,2.31-.12,2.21-1.8A4.29,4.29,0,0,0,744.06,281.59Z"/><path class="cls-2" d="M741.73,276.45c.12-2.43-.67-3.52-2.4-3.37a4,4,0,0,1-.49,2C739.46,276.19,740.91,277.64,741.73,276.45Z"/><path class="cls-2" d="M742.36,484.53c-.33,2.05.51,2.47.51,4,3-.82,2.58-6.65,4.28-9.45-1.62-2.87-5.89-5.5-3.38-10.12-2.57-1.34-3,2.47-3.82,4.71-4.12.5-6.47,3.45-8.09,7.46C736.87,478,737.66,485.11,742.36,484.53Z"/><path class="cls-2" d="M741.88,400.34c-.38-1.06-3.88-3.5-4.38-.56C739,400.9,740.84,401.07,741.88,400.34Z"/><path class="cls-2" d="M647.47,222.55c1.87.89,1.41-1.57,1.44-3.34C647.42,218.89,647.36,220.66,647.47,222.55Z"/><path class="cls-2" d="M647.07,231.52c0-.4.36-.71.46,0-.29,0-.54.07-.44.57a3,3,0,0,0,2.66-1.18c-1.38.1-1.5-1.64-3.16-1.22v1.23C646.62,231.27,646.66,231.6,647.07,231.52Z"/><path class="cls-2" d="M653.7,257c-1-3-5-2.2-4.76,2.07C650.82,260.42,653.2,259.51,653.7,257Z"/><path class="cls-2" d="M649.56,459c-.26-3.57-1.49-5.74-3.2-7.26v5.73C647.23,458.92,648.41,459.73,649.56,459Z"/><path class="cls-2" d="M649.3,221.78c2.71-.9,7.53,1,6.65-4.83-2.13-.32-5.35.87-6.19-1.2,0-4.5,3.33-4.35,4.86-6.65-3.55-1.08-6,1.28-7.55,5.43C649.61,214.53,649.44,218.18,649.3,221.78Z"/><path class="cls-2" d="M750.57,591.92c-2-.12-2.43,2-3.81,2.72.8,2.52.43,6.14-2.37,5.41-1.08,4.46,3.41,4.53,4.29,4-.9-2.62-1.43-6.76,1.37-6.75C749.71,594.79,750.7,594.09,750.57,591.92Z"/><path class="cls-2" d="M713.16,475.77c-2.11,1.54-2.89,5-5.72,5.45-1.52-2.47.72-4,1.47-5.45-1-4-3.17-6.37-6.27-7.42-1.08,3-3.28,4.39-4.75,6.79.27,2.53,1.79,3.35,1.91,6.09.09,3.72-4,4.53-2.4,8.12,2-1.81,2-6.16,4.81-6.77.77,2.23,2.87,1.23,3.33-.68C705,484,707.23,487,708.91,486a5.08,5.08,0,0,1,4.26-4.08Z"/><path class="cls-2" d="M709.88,588.62c-.17,1.28-1,1.73-.89,3.35a2,2,0,0,1,1.4.67C711.06,591.81,711.22,588.64,709.88,588.62Z"/><path class="cls-2" d="M717,468.31c.84-.78,2.78-.08,3.34-1.3-1.81.7-.76-2.54-2.4-2A2,2,0,0,0,717,468.31Z"/><path class="cls-2" d="M726.64,564.27c-.45-2.2,1.56-.93,1.9-2.06,0-1.71-.87-2.3-1.41-3.37-.36,1-1.28-.31-2.36.68C725.1,561.54,725.51,563.44,726.64,564.27Z"/><path class="cls-2" d="M716.46,360.27c-.13.52-.41.8-1,.69-.15,2.52.38,4,1.93,4C718,363.06,717.77,361.09,716.46,360.27Z"/><path class="cls-2" d="M723.64,423.1c2.46,0,3-2.61,2.91-6.12C724.79,417.9,724.15,420.45,723.64,423.1Z"/><path class="cls-2" d="M727.15,608.85c-1.3.64-1.09,3.45-1.44,5.41,1.44.16,1.45-1.52,2.87-1.34C728.57,610.84,728.86,608.47,727.15,608.85Z"/><path class="cls-2" d="M725.66,539.94c1.1.22,2,1.33,2.84,0,.44-2.87-1.1-2.87-2.83-2.69Z"/><path class="cls-2" d="M719,515.67c2.28-2.35,5.49-4.08,7.13-5.45C724.29,508.88,717.28,510.34,719,515.67Z"/><path class="cls-2" d="M691.12,379.91c2,1.61,6.89,2.21,8.61,2C698.79,379.28,692.83,377,691.12,379.91Z"/><path class="cls-2" d="M699.2,350.78c-.24-2.74,1-3.81-.92-4.24-1,1.26.26,1.69,0,3.6a2,2,0,0,0-2.21,1.24c2.52.94,3.67,6.56,6.67,4.84C703,352.49,700.37,352.58,699.2,350.78Z"/><path class="cls-2" d="M703.58,429.2c1.25-1,.26-4.34-1-4C702.9,426.54,701.84,429.85,703.58,429.2Z"/><path class="cls-2" d="M696.37,413.67c2.86-.51,6.23-.18,7.19-3.36C701.66,410,696.94,410.05,696.37,413.67Z"/><path class="cls-2" d="M710.82,470.41l0,3.36C712.72,474.44,712.74,469.73,710.82,470.41Z"/><path class="cls-2" d="M686.77,363.71c.78.82,1.87,2.12,2.88.64C690.19,361.72,686.79,361.67,686.77,363.71Z"/><path class="cls-2" d="M722.67,410.26c1.26,1.41,3.54,0,3.35-2.71C723.88,407,723,408.28,722.67,410.26Z"/><path class="cls-2" d="M740.07,622.36c-1.51-.32-1.52,1.46-1.47,3.35C740.57,626.51,741,623.68,740.07,622.36Z"/><path class="cls-2" d="M754.41,636.52v-3.37a8.41,8.41,0,0,0-5.24,4C750.47,637.82,752.32,637.62,754.41,636.52Z"/><path class="cls-2" d="M752.47,595.32v3.36c1.2.11,2.31.1,2.91-.69C755.31,595.84,754.25,595,752.47,595.32Z"/><path class="cls-2" d="M753.9,533.83c2.13-.48.89-1.75,1.43-4.68C753.68,529,753.91,531.62,753.9,533.83Z"/><path class="cls-2" d="M751,520.33c.13,2.69-.9,3.1,0,4.69a2.7,2.7,0,0,1,2.36-2c1.5.38,1,3.62,3.39,2.69.09-.5,0-1.3.47-1.32C756.13,520.23,754.53,521,751,520.33Z"/><path class="cls-2" d="M758.72,574.34V577c2.52.43,2.56-2.63,3.77-4.06C760.66,572.63,759.72,573.57,758.72,574.34Z"/><path class="cls-2" d="M719.41,476.46c1,3.41-.43,3.35-1,6.1,1.92-1.42,4.63-1.66,4.8-5.39C721.13,477.94,720.51,474.93,719.41,476.46Z"/><path class="cls-2" d="M719.43,498.75c2,.25,4.88,1.19,3.31-2C722,498.51,719.46,495.12,719.43,498.75Z"/><path class="cls-2" d="M716.59,585.26V588a2,2,0,0,1,1.46.67C718.83,587.48,718.42,584.65,716.59,585.26Z"/><path class="cls-2" d="M706.07,559.54c-.05,1.73-.89,2.12,0,3.42C708,563.62,708,559,706.07,559.54Z"/><path class="cls-2" d="M731,607.47c0-2.75,1.33-7.1,0-9.44-1.26,2.24-3.81,6-2.41,8.13C729.19,604.24,729.56,608.28,731,607.47Z"/><path class="cls-2" d="M720.8,454.81c-.53.18-.73.78-.93,1.38.65.45.88,1.48.93,2.71h2.41C723.37,456.13,722.71,454.62,720.8,454.81Z"/><path class="cls-2" d="M956,561.14c-.57,1.49,0,1.15-.46,3,1,.18,1.67-.12,1.77-1.19-.5-.15-.25-.67,0-1.25A1.68,1.68,0,0,1,956,561.14Z"/><path class="cls-2" d="M978.69,547.6c-2.14.12-2.38.84-3.83-.65-1.36,1.24-1.62,7.28,1.45,6.06C975.81,549.36,977.61,549,978.69,547.6Z"/><path class="cls-2" d="M971.48,520.52C971,522,970.07,523,968.41,523a5.91,5.91,0,0,0-1.95-3.83,2,2,0,0,1,.74.09c.11-2.41-1.69-2-3.28-1.36a8.25,8.25,0,0,1-2.66-1.57c-.44,3-2.92,3.22-4.38,4.85a9.25,9.25,0,0,0,3.94,3c.73-.47-.08-3,1.33-2.45C963.65,526.47,974.22,527.78,971.48,520.52Z"/><path class="cls-2" d="M964,576.29c1.51.78,1.81-3.09.86-3.68A21.86,21.86,0,0,0,964,576.29Z"/><path class="cls-2" d="M968.85,569.6c-1.19.25-.41-2.23-1.35-2.4-.26,1.38-1.43,1.6-1.73,3.06,2.6-1,3,1.07,2.67,4.15,4.4.72,1.61-8,5.8-4.17-.09-1.51-.09-2.93.44-3.65C971.17,565.39,970.92,568.77,968.85,569.6Z"/><path class="cls-2" d="M909.63,466.08c2.09.13,1.51,1.59,3.54.62,0-2.24-2.12-1.86-3.09-2.95A3.59,3.59,0,0,1,909.63,466.08Z"/><path class="cls-2" d="M903.5,414c2,.68,2-4,0-3.37Z"/><path class="cls-2" d="M980.12,526.66c-1.43,1.55-2.5,2.59-3.81,2.7.39,2.33-.71,2.6-.49,4.72,1.46.47.9.46,2.41,0C977.22,529.73,981.12,528.77,980.12,526.66Z"/><path class="cls-2" d="M975,462.34c-.08-2.3,2.09-1.62,1.8-4.19-.67-.33-1.16-.92-1.81-1.25C974,457.82,973.69,461.54,975,462.34Z"/><path class="cls-2" d="M955.93,495.71c-2.92-2.3-2.65,4.35-4.43,5.48C954.27,501.12,954.45,497.55,955.93,495.71Z"/><path class="cls-2" d="M968.14,480v2c1.29.82,3.72,1.4,3.81-1.36C971.28,479.68,969.5,480.17,968.14,480Z"/><path class="cls-2" d="M971,465.38c-1.23-1.58-2.46.24-2.65,1.82C969.39,468.54,971.15,467.44,971,465.38Z"/><path class="cls-2" d="M954.89,464.85c.73,1.62,2.68,1.66,4.17,2.38-1.45,7.21,4.71,6.38,8.37,6.07,1.34-6-2-8,0-13.31-2.73.44-3.59,3.52-4.82,6-1.43-.25-1.61,1.14-3.1.65,0-.63-.38-.72-.45-1.21-.49-4.27,2.23-4.16,2.64-7.26.15-1.45-.82-1.31-.46-3.06a24.74,24.74,0,0,0-3.16.08s0-.06,0-.11c-1.53-4-6.85,0-3.84,3.42-.29-2.61,1.83-1.7,3-2.06.28,2.45,2.08,2.76,2.25,5.34-2.93-1.43-2.11.93-4,1.85a1.32,1.32,0,0,1-.42-.27,1.27,1.27,0,0,0-.66-.7c-.79-1.14-1.31-2.65-2.92-2.66a4.58,4.58,0,0,0,.35,3C952,465,953.7,465.76,954.89,464.85Z"/><path class="cls-2" d="M952.75,453.91c-.1,1.25-1.64.59-1.72,1.84.51.69.75,1.76,2.2,1.17C953,456.06,953.76,453.81,952.75,453.91Z"/><path class="cls-2" d="M966.1,451.44c.23-.87.67-1.49.91-2.39-1.28-.29-1.37-2.14-3.1-1.81-.24,1.9,1,2.36,0,3.67C965,450.61,964.85,452,966.1,451.44Z"/><path class="cls-2" d="M891.14,552.5c-1.21-3.48,3-3,3.39-6.1.69.75,1.15,2,2.36,2.05,1.4-4.69,6.91-2.9,7.63-6.81.69,1.35,2.16,1.5,3.36,2.06.86-1.76,3.31-1.28,2.88-4.76-1.25-.25-2.62-.32-3.31-1.36,0-6.09-.41-8.77,0-14.15-1.45-.64-1.52-.64-2.93,0,.68-.91.85-4.06-.46-4.08-1.71,3-1.62,7.66.46,9.52-1,4.19-2.34,11.45-7.15,8.06,2.31-3.9-2-7.77.48-11.52-4.86-1-5.48,6.05-9,4.8-.07,8.52-6.37,5.22-7.72,10.79C885.64,543.18,886.48,550.54,891.14,552.5Zm-3.32-6.79c-1.71-2.1-2.6-2-3.34-6C886.67,540.13,887.29,542.84,887.82,545.71Z"/><path class="cls-2" d="M904.28,463.71c-1.4-.28-1.7.83-2.63,1.21.25,1.46.58,2.83,1.77,3C903.38,466,904.64,465.92,904.28,463.71Z"/><path class="cls-2" d="M907,477c-.91-.76-2.54-.55-3.57-1.15,0,.77-.58.83-.45,1.82C904.31,477.61,906.52,479.46,907,477Z"/><path class="cls-2" d="M893.94,418.7c-.14,2.71.86,3.76.5,6.78a2.39,2.39,0,0,0,2.35-.68C896.1,422.38,895.55,419.76,893.94,418.7Z"/><path class="cls-2" d="M899.78,530.85c1.39.06,2.41-2,1.4-3.38C899.87,527.38,899.78,529.16,899.78,530.85Z"/><path class="cls-2" d="M898,408c.82-1.21-.53-2.82-1.79-3C896.51,406.45,896.63,408,898,408Z"/><path class="cls-2" d="M910.73,495.7a14.84,14.84,0,0,0-6.69,4.73c2.27,2.44.68,5.9,1.93,7.45C908.78,505.45,912.21,502.29,910.73,495.7Z"/><path class="cls-2" d="M882.09,586.29c.06-1.65.89-2.14,0-3.39C879.83,582.72,880.84,586,882.09,586.29Z"/><path class="cls-2" d="M970.16,486.63a7,7,0,0,1-5.35,1.22c-.25.88-.65,1.48-.88,2.42,2.35,2,5-1.08,8,1.15C971.45,489.64,970.12,489.13,970.16,486.63Z"/><path class="cls-2" d="M894.1,501.92c-1.36-.06-2.93-.37-2.68,1.77C892.79,503.72,894.38,504.06,894.1,501.92Z"/><path class="cls-2" d="M892.28,421.29c-.75,1.21-2,1.81-2.24,3.66,1.38.85,2,.27,3.13-.63,0,.75.12,1.48.87,1.22A4,4,0,0,0,892.28,421.29Z"/><path class="cls-2" d="M883.43,420.78v2.69c1.78.06,3.87.46,3.35-2.69C885.54,419.36,885,422.28,883.43,420.78Z"/><path class="cls-2" d="M895.86,485.51a3,3,0,0,0,1.8,3C898.72,487,897.81,484.74,895.86,485.51Z"/><path class="cls-2" d="M894.89,398.46c-.27,1.4-1,2.21-1.45,3.37C895.2,402.85,896.08,399.35,894.89,398.46Z"/><path class="cls-2" d="M901.11,419.42c-1.47-.12-1.41,2-1.41,4a2.67,2.67,0,0,0,1.58.76c-.36.68-.69,1.39-1,2,2.55-2.24,2.54,2,4.43,2.35,1.58-2.14-1.68-3.91.9-6.61-1.58-1.15-2.8-.13-3.73,1.35C900.71,422.2,902.09,420.86,901.11,419.42Z"/><path class="cls-2" d="M900.21,457.22c-1-2.79-2.72-6.34-5.74-4.05v2C896.17,456.31,898.08,458.68,900.21,457.22Z"/><path class="cls-2" d="M887.24,418.07h2.89C890.72,414,887.05,415.33,887.24,418.07Z"/><path class="cls-2" d="M887.8,516c.64-.93.86-4.73-.49-4.74C886.65,512.2,886.38,516,887.8,516Z"/><path class="cls-2" d="M908.7,404.93c-.73-2.43-1.66-4.61-4.45-4.26,0,.83-.55.85-.43,1.82C906,402.66,906.43,406.63,908.7,404.93Z"/><path class="cls-2" d="M896.77,516.41c-.53-1.67-1-3.45-2.23-4.23A4.58,4.58,0,0,0,896.77,516.41Z"/><path class="cls-2" d="M889.61,428.55c-.17,1.05-.58-.12-1.35,0,0,.85-.55.92-.44,1.89a8.42,8.42,0,0,0,1.8-.68c0,.17,0,.3,0,.45,1.15.06,1.42-1.18,2.87-.7.35-2.46-.74-3-2.38-2.66a4.73,4.73,0,0,0-.48,1.77S889.62,428.61,889.61,428.55Z"/><path class="cls-2" d="M894.94,457.91a2.66,2.66,0,0,0-2.4,2c1,0,.63,1.86,1.92,1.38A6.75,6.75,0,0,0,894.94,457.91Z"/><path class="cls-2" d="M893.18,446.75c-.55.94-1.41,2.34-.47,3.64C894.15,451.25,893.84,446.74,893.18,446.75Z"/><path class="cls-2" d="M936.38,528.46c1,1.84,2.74.93,4,0,.15-1.15-.48-1.31-.4-2.4C937.78,525.56,937.2,527.16,936.38,528.46Z"/><path class="cls-2" d="M952.4,514.5c.06-.49.34-.71.89-.59-.21-2.26,1.49-4.45.44-7.31-1.63.49-3.41,1.08-4.89,0C949.09,510.49,950.71,512.53,952.4,514.5Z"/><path class="cls-2" d="M951.86,406.67c1.14,1.5,2.19-.59,4,0a22.67,22.67,0,0,0,.92-3.62c-.88,0-1-.44-.49-1.23C953.76,402,953.21,404.85,951.86,406.67Z"/><path class="cls-2" d="M922.23,548.39c.73-1.09,1-5.37-.92-4.7C921.39,545.54,920.87,548.3,922.23,548.39Z"/><path class="cls-2" d="M951.44,431.47c.62,3.63,4.74,2.46,6.67,1.21C956.3,430.4,953.91,432.65,951.44,431.47Z"/><path class="cls-2" d="M977.63,392.08c1.9.12,1.79-2.44,3.15-3-1.28-1.62-2.21.54-3.56.58A4.38,4.38,0,0,0,977.63,392.08Z"/><path class="cls-2" d="M964.73,401c1.35-.13,2.71-4.17,1-4.7C965.74,398.42,964.4,398.55,964.73,401Z"/><path class="cls-2" d="M960.77,447.23c3.31-1.14,2.79-7.54,5.31-9.69,1.66,2.58,2.17,6.79,3.57,9.67.31-2.14-.36-4.74,1.78-5.46-.19-3-2.91-2.45-2.21-6.62-1.77-.31-3.84-.25-2.66-4.26-2.93-.69-5-2.49-7.1-4.22,1.68,2.22,1.64,3.29,1.75,7.27-1.33,2.43-3.2,4.13-4,7.27C958.75,442.83,962.47,443.16,960.77,447.23Z"/><path class="cls-2" d="M882.58,581.54c1.75.46,1.9-1.4,1.93-3.38C882.59,577.52,883,580.15,882.58,581.54Z"/><path class="cls-2" d="M936,556.35c.32-2.52-1.3-2.27-1.81-3.67.13,1.16-.49,1.34-.45,2.45C934.61,555.37,934.84,556.43,936,556.35Z"/><path class="cls-2" d="M941.4,549.7c-2.39-1.06-3,2.32-1.93,4.07C941,553.63,941.55,552.19,941.4,549.7Z"/><path class="cls-2" d="M936.38,543c-1,.32-.36,3.25,0,3.67C937.8,547.51,937.8,542.13,936.38,543Z"/><path class="cls-2" d="M968.41,504.81c-.43,1-1.64,1-1.79,2.41,1.28.81,2.17,1.53,3.07,0A2.39,2.39,0,0,0,968.41,504.81Z"/><path class="cls-2" d="M971.51,561.78a1.93,1.93,0,0,1,1.45.7c-.05-1.69.76-2.07.95-3.42a2.52,2.52,0,0,0-2.39.72Z"/><path class="cls-2" d="M955.26,570.62c-.34,3.3,2.58,4.51,3.87,3.35A3.89,3.89,0,0,0,955.26,570.62Z"/><path class="cls-2" d="M931,529.1c-4.66.43-5.26-7.8-7.58-8.48,0,5.39,2.87,9.07,7.14,10.3A3.35,3.35,0,0,1,931,529.1Z"/><path class="cls-2" d="M928.49,540.28c-1.43-1.9-2.38.62-2.91,2C927,543.26,928.37,542.86,928.49,540.28Z"/><path class="cls-2" d="M947.53,572.06c-.76,1.17-1.93,1.85-2.23,3.63,2.52.27,2.37-.45,4.45,1.84C950.84,575.3,949.24,572.39,947.53,572.06Z"/><path class="cls-2" d="M1018.87,536.71c.54,1.5.09,4.37,1.44,4.73C1021.39,539.75,1020.27,537,1018.87,536.71Z"/><path class="cls-2" d="M1024.06,452.92c.62-1.72,1-2,.48-4.06-1.11,0-1.38,1.21-2.85.69.09,1.3-.55,1.52-.5,2.71C1021.76,453.05,1022.88,453,1024.06,452.92Z"/><path class="cls-2" d="M983.51,584.77c0,1.66-.08,3.23.47,4,1.1.22,1.82-.15,1.9-1.35C984.81,587,984.64,585.21,983.51,584.77Z"/><path class="cls-2" d="M987.31,550.3c-1.45.89-1.59,3.55-2.84,4.74.31,1.32,2.65-.2,2.85,1.33-1,.62-.87,2.89-2.41,2.68a14.34,14.34,0,0,0-.95-4.71l-1.89,0c1.34,5.1-.54,5,0,9.5-1.57-.18-2.32.8-2.37,2.68,1.95.59,1.83-1.82,2.83-2.7,1.52.72,2.64-.14,3.83,2,.32-2.48-.8-2.87-.5-5.38,3.43,0,5.65-5.42,7.65-9.45C991.32,553.76,989.23,552.69,987.31,550.3Z"/><path class="cls-2" d="M1015.5,515.14c-1.66-.28-2,3.16-1.39,4C1015.7,519.41,1014.88,516.26,1015.5,515.14Z"/><path class="cls-2" d="M1011.12,387.42c1.86,3.25.68,7.74,2.87,9.48a13.49,13.49,0,0,0,1.43-5.44c-1.18-1.42-2.93-2.77-1.94-5.37C1012.29,386,1012,387.13,1011.12,387.42Z"/><path class="cls-2" d="M1015,441.47c-1.68-.39-2.47.57-2.86,2C1013.57,443.52,1015.26,443.9,1015,441.47Z"/><path class="cls-2" d="M1014.1,508.36c-.75-5.29,3.42-11.53-.53-14.18C1010,495.37,1007.17,509.45,1014.1,508.36Z"/><path class="cls-2" d="M1012.13,463.77c2.47.07,1.78-4.21,4.28-4.07v-5.41C1015.21,457.4,1011.65,460.48,1012.13,463.77Z"/><path class="cls-2" d="M1020.73,478.61c-2.43-2.74-4.79,3.4-3.83,5.41C1017.69,481.5,1020.58,481.93,1020.73,478.61Z"/><path class="cls-2" d="M1012.64,514.44c-.29-1.87-.49-3.76-2.38-3.38,0,2.54.53,1.94,0,4.09C1011.41,515.35,1011.31,513.89,1012.64,514.44Z"/><path class="cls-2" d="M1012.69,576.57c1.3-1.1,3.66-3.42,2.39-6.06-2.06-.44-1.52,2.85-3.38,2.71,0-.71-.6-.54-.46.67C1013,573.32,1013.62,575.31,1012.69,576.57Z"/><path class="cls-2" d="M1016,487.43c-1-1.9-2.51-1.11-2.42,2C1014.65,491,1016.12,489.6,1016,487.43Z"/><path class="cls-2" d="M1016.91,499.56c.56-2.15.16-2.87,1-5.39C1015.5,494.08,1015.91,497.79,1016.91,499.56Z"/><path class="cls-2" d="M988.27,567.19a6.19,6.19,0,0,0,.5-3.4C987.29,563.53,986.81,567.07,988.27,567.19Z"/><path class="cls-2" d="M813.41,245.13c.1-1.47.09-2.92-.44-3.66-1.43,2.4-6.6-1.59-7.11,3.09.61.14.53,1.35.9,1.83l3.11,0c.13-1.42.46-2.59,1.31-3C812.6,243,812.34,244.93,813.41,245.13Z"/><path class="cls-2" d="M808.76,352.67c.74.75,1,2.19,2.37,2,.67-.82.75-3.32-.44-3.32C810.22,353.28,808.9,351.48,808.76,352.67Z"/><path class="cls-2" d="M845.69,489.75c.53-.13.73-.77,1-1.36-1.67,0-1.45-2.46-1.46-4.74-2.34.45.29,3.67-.47,6.1Z"/><path class="cls-2" d="M792,419.61c-.09,1.57-1,2.88.54,3.35,0-1.75,1.84-1,1.91-2.73A2.58,2.58,0,0,0,792,419.61Z"/><path class="cls-2" d="M795.9,475c-.72-.17-.33-1.5,0-2.05-2.08-.38-4.46.17-3.31-4.74-.65-.88-2.09-.62-3.39-.61.82,4.28-1.86,3.64-3.33,4.71,1,.2-.68,1.85,1,2,3.08-4.23,4.45,3.56,6.71,4.71A6.33,6.33,0,0,1,795.9,475Z"/><path class="cls-2" d="M798.32,472.93c.09-.95.79-1.14.95-2.06-1-.35-1.39-1.64-2.86-1.3C796.27,471.78,796.94,472.86,798.32,472.93Z"/><path class="cls-2" d="M812.16,439.13c-.18-2.32.84-5.58-.48-4C812.64,435.3,809.81,438.68,812.16,439.13Z"/><path class="cls-2" d="M952.69,383.63c.33-2.64-2.05-1.61-3.53-1.8C948.87,384.47,951.22,383.44,952.69,383.63Z"/><path class="cls-2" d="M915,479.44c-3.59-.45-4.4,2.94-4.89,6.66,2.17-.28,3.32-2,5.33-2.4C914.67,481.9,915.56,480.62,915,479.44Z"/><path class="cls-2" d="M915.45,518.81c2.12-.19,3.82-.89,4.45-3-2.42-1.62-4,2.24-4.88-1.79C915.08,515.7,914.79,517.94,915.45,518.81Z"/><path class="cls-2" d="M918.85,470.68C917,471,916,472.46,916,475.4h2.42C918.3,473.31,920.05,472.38,918.85,470.68Z"/><path class="cls-2" d="M918.13,497a5.28,5.28,0,0,0-.46-3.05c-1.4.1-2.12,1.13-2.21,3.07A1.81,1.81,0,0,0,918.13,497Z"/><path class="cls-2" d="M918.59,509.72c2.35.2,3,2.73,4,4.85h3.56c.77,1.57,0,5.16,2.21,4.84.88-.95,1.13-2.94,1.78-4.26-2.2-4.51-8-4.08-10.25-8.47C920.12,508.59,918.7,508.26,918.59,509.72Z"/><path class="cls-2" d="M911,451.56c-1.52,2.38-4.69,2.41-6.86,3.89a3.18,3.18,0,0,0-1.05-1,5.94,5.94,0,0,0-.8,3.26c-.06.18-.12.33-.17.52-2.58-.13-4.91.19-5.35,3,1,.46,2.3.54,3.16,1.2a10.73,10.73,0,0,1,2.66-3,6.61,6.61,0,0,0,.5,1.13c1.27.36,2.43-2.78,3.35-.72-.84,1.08-2.53.93-1.92,4.07a2.6,2.6,0,0,1,1.83.14c.79,1.31,2.24,3.45,2.92,2.6a.73.73,0,0,1-.39-.88c.16.05.3.13.44.18a4,4,0,0,0-.13-1.18,2.08,2.08,0,0,1,.92-1.12,2,2,0,0,1-.45-1.21.65.65,0,0,0,.63.12c.39-1.45,1.46-2,1.4-4.05a4.31,4.31,0,0,1-1.68-1.44,11.07,11.07,0,0,1,3.21.52c-.72-.27.09-.81,0-1.83C910.19,456.39,910.6,454.59,911,451.56Zm-3.56,7a2.59,2.59,0,0,1-1.57-.85,15.52,15.52,0,0,1,2.52-.55C908.19,457.81,908,458.44,907.4,458.57Zm1.16,3.78c.05-.15.14-.25.2-.39a.63.63,0,0,1,.43.13C909,462.19,908.75,462.27,908.56,462.35Z"/><path class="cls-2" d="M907.59,436.68c-.22-1.23-.23-2.85-1.2-3.1.27,2.69-1.42-.34-2.87.65.12.72.19,1.48.26,2.22-.83-.88-1.17-2.51-2.08-3.29a2.13,2.13,0,0,0,.87-.93c-2.57,0-3.16-5.65-5.28-4.06v1.33c1.38.28,2.44,2.72,3.5,3.51-1.23.73,0,2.22-1.39,2.8-.31-1.18-2.1-.34-2.24-1.76a9.68,9.68,0,0,0,0-1.13s.11,0,.18-.05c.26-1.28-.08-1.78-.53-2.14a21.47,21.47,0,0,0-1.83-4.57c-1.16,2.79-.16,4.87-.43,9.08,1.19,1.14,3.41,1.78,5.26,3.09h0c-1.14.84-1.55,2.67-2.8,3.32a2.19,2.19,0,0,0,.24-2.14c-1.18.06-1.6,1.29-1.62,2.32a5.76,5.76,0,0,1-.62-.13c0,2.11-1.28,2.24-1,4.74,2,1.33,4.59-1.41,6.53-.15-.46.66-.38,3.57.25,3.51.06-.48.57-1.34.82-2.16a.33.33,0,0,0,.06.1c1-.85.66-3.57,1.89-4,1.44-.19,1.48,1.51,2.89,1.33a9.06,9.06,0,0,0,.06-1.6c2.08,0,4.13.11,6.3-.94.07-1.73-.38-4.19.87-4.28.72,1.27,2,1.69,2.22,3.64-.66,2.5-3.73,1.83-4,4.86,2.83.19,2.48-3.86,6.23-2.43A12.27,12.27,0,0,1,919,440c-3,1.13-2.81-2.2-2.71-5.39-1.84-.09-2.77,1-4.87.61a3.11,3.11,0,0,1-.86,2.43A4.07,4.07,0,0,1,907.59,436.68Zm-6,5.65c-.35-1.73-.39-1.57.06-2.1a5.74,5.74,0,0,1,.92,1.78A1.84,1.84,0,0,1,901.63,442.33Z"/><path class="cls-2" d="M922.64,436.9c-1.06-1.25-3.35-.25-3.83,1.39C919.74,439.45,923.2,441.08,922.64,436.9Z"/><path class="cls-2" d="M945.27,541.8c.29-.63,2.12-.14,2.67-1.87a3.26,3.26,0,0,0-3.09-3C945.12,538.41,944.25,541.33,945.27,541.8Z"/><path class="cls-2" d="M929.25,501.85c-.88-.83-1.81.42-3.1-.6,0,2.26-1.66,2.22-1.78,4.21,2.37.45,3.63,2.27,4.45,4.84,2-.28,4.08-.47,4.86-2.44-1-1.93-4.27-.63-4.88-2.95A5.77,5.77,0,0,0,929.25,501.85Z"/><path class="cls-2" d="M933.69,524.76a2.9,2.9,0,0,0-1.44-.06,5.74,5.74,0,0,0,.51,3.39c1.59.49,1.75-1.12,1.91-2.72a3,3,0,0,0-.84-.55c1.25-.58,1,1,1.65,1.23-.23-1.7,1.67-.58,1.78-1.83-.34-.11-.52-.52-.44-1.19C935.39,523,933.7,522.8,933.69,524.76Z"/><path class="cls-2" d="M939.94,532.15a7.72,7.72,0,0,0,0,1.21,14.62,14.62,0,0,1-5.84,1.79c-1.25,3.79-1.83,5.52-4.45,6.69a7.86,7.86,0,0,0,1,3.68,3.51,3.51,0,0,1-2.67.14c-.09,1-1.81,3.14-.47,4.05a4.8,4.8,0,0,1,3.74-2.68,6.18,6.18,0,0,1-.19,3.23c1.82.24,2.11-1.68,2.58-3.3a3.42,3.42,0,0,1,.53.07,16.11,16.11,0,0,0-.48-5.41.18.18,0,0,1,.08,0c.7-.1,1.71.23,1.87-.68-.32-.09-.49-.4-.51-.88,1-1.66,1.68-3.8,3.45-2.5-2,.54,0,8.37,1.77,5.45-1.12-.05-.89-2-.88-3.61,1.27-.88,3-1.11,4-2.42,0-1.46-.08-2.94.45-3.66a3.12,3.12,0,0,1-1.16-1,.16.16,0,0,1,.05-.14A1.83,1.83,0,0,0,939.94,532.15Zm-7.62,11.37c0-.46,0-1,0-1.72a1.69,1.69,0,0,0,.92,0C933,542.37,932.67,543,932.32,543.52Z"/><path class="cls-2" d="M941.26,553.9v3.63c1.16,1.13,3.1,1.11,3.16,3.62-1.25,2-2.27,1.63-4,.61a5.5,5.5,0,0,0-.4,3,3.88,3.88,0,0,1,3.53,6.06c2.23,1.74,2.25-2.37,3.13-4.24,1.61-.15,2.17,1.11,3.55,1.22,1-1.91,3.43-1.79,4-4.25-1.94-1.34-4.25-2.26-5.3-4.87-2.6.37-4.91,1.3-5.79-1.77.52-2.09,1.53-3.56,2.21-5.45C943.5,551.68,943.52,554.36,941.26,553.9Z"/><path class="cls-2" d="M880.55,439.67a12.11,12.11,0,0,1,2.4-4C881.7,433.72,878,438.38,880.55,439.67Z"/><path class="cls-2" d="M880.54,428.19c.46-3.15-.82-3.77-2.85-3.36-.23,1.63.87,1.49.47,3.36Z"/><path class="cls-2" d="M884.89,478.86c-.87-1.05-3.44-.42-3.35,2,.93.29,1.2,1.44,2.4,1.35C883.6,480.16,885.25,480.94,884.89,478.86Z"/><path class="cls-2" d="M892.16,570c-1.71.13-1.12-3-2.43-3.37-.92,1.69.13,4.9.5,6.78C891.73,573.52,891.85,571.66,892.16,570Z"/><path class="cls-2" d="M893.92,396.4c2.6-1,4.17-1,5.27,2,1.94-1.4,2.51-2.46,4.77-.68a65.52,65.52,0,0,0,3.38-6.76c1.5-.3,1.07,2.06,2.85,1.34a6,6,0,0,0,.47-3.39c-4-1.34-8.24-2.28-10.07-6.7.39,1.7.73,3.07-.42,4.05C896.15,386.58,892.28,390.34,893.92,396.4Zm4.31-8.07c2.67-.72,2.55-2.41,5.72-1.36.64,5.78-1.64,8.89-4.76,7.43A14.51,14.51,0,0,1,898.23,388.33Z"/><path class="cls-2" d="M1002.16,579.94c.41,2.25-1.85,6.28.5,6.8-.7-3.66,1.19-3.67,1.89-5.4C1003.66,581.06,1003.35,579.87,1002.16,579.94Z"/><path class="cls-2" d="M1001.64,515.17c-.88-.58-1.94-.9-2.41-2v2.67C1000.35,516,1001.29,517.28,1001.64,515.17Z"/><path class="cls-2" d="M1019.35,526.58c.17-3.52-2.26-.79-2.9-2v2C1017.87,527.19,1017.94,527.2,1019.35,526.58Z"/><path class="cls-2" d="M999.92,403.53c.41,1.63.17,4.22,2.21,3.66.09-.49,0-1.21.42-1.23C1002.5,404,1001.55,403.27,999.92,403.53Z"/><path class="cls-2" d="M950.08,422.42c-1.82.13-4.35-.71-4,2.43a1.82,1.82,0,0,1,1.75,1.22,8.91,8.91,0,0,0,3.15-2.42C949.66,423.78,949.46,423.46,950.08,422.42Z"/><path class="cls-2" d="M1007.83,484.74c.16-1.6.73-2.54.52-4.78-2.56.08-4.63.77-5.32,3.42C1005.19,484,1005.94,482.17,1007.83,484.74Z"/><path class="cls-2" d="M1007.82,473.92c.17-2.12-2.19-3.61-2.41-1.37C1006.14,473.47,1006.65,475.64,1007.82,473.92Z"/><path class="cls-2" d="M1007.42,567.81c2.09,0,2.6-2.14,4.29-2.7-.26-3.62-1.08-6.4-.93-8.77-2.86.91-3.72,4.67-5.76,6.76.7.56,1,1.7,1,3.34-2.13,1.73-2.26,6.32-3.82,8.81C1004.74,578.47,1005.3,569.46,1007.42,567.81Z"/><path class="cls-2" d="M886.88,574.81c-.4-1.69-2.25-5.51-2.88-2.73C885.37,572.44,884.71,575.63,886.88,574.81Z"/><path class="cls-2" d="M949.45,461.17c.24-2.38-.41-3.48-1.42-4C947.14,458.42,947.88,461.3,949.45,461.17Z"/><path class="cls-2" d="M943.43,436.93c-.67.88-1.4,3-.45,4.25,1.41-1,4.92.67,4.89-2.42C945.5,439.41,944.78,437.72,943.43,436.93Z"/><path class="cls-2" d="M951.41,390.27c-.25,2.32-1.46,3.31-1.35,6.1,1.36-.21,1.26-2.33,2.65-2.46,0,2.62,2.31,2.13,3.15,4.86a1.35,1.35,0,0,1,1.32-1.21c-.14-2.8-1.64-3.79-1.32-7.29Z"/><path class="cls-2" d="M960.84,397.92a2.42,2.42,0,0,0-2.32-1c-1.25,5.43,1.13,9.81,4,9.12a25.49,25.49,0,0,0-.63-5.83C963,398.94,961.61,397.17,960.84,397.92Z"/><path class="cls-2" d="M1167.56,429l-2.4,0c-1.68,2.48-.37,6.19,1.94,6.77C1167.41,433.27,1168.55,431.55,1167.56,429Z"/><path class="cls-2" d="M1214.32,483.75c-1.62.38-3.5-2.09-3.54,1.19A2.05,2.05,0,0,0,1214.32,483.75Z"/><path class="cls-2" d="M1213.88,440.1c-1.74.28-2.82-1.52-3.13,1.21C1212.47,441.06,1213.53,442.83,1213.88,440.1Z"/><path class="cls-2" d="M1240.34,495.82c-.15-.55-.06-1.37-.52-1.37.14,2.7,1.37,3.89,3.36,4a16.12,16.12,0,0,1,1.43-4C1242.61,491.69,1242.36,495.2,1240.34,495.82Z"/><path class="cls-2" d="M1236.4,397.85c-1.12,5.61,1.53,8.84,3.81,11.48,2.59-3-.7-5-.9-8.12,3.25-1.35,5,4.27,6.2,0C1242.27,401,1241.08,397.49,1236.4,397.85Z"/><path class="cls-2" d="M1182.33,371.58c1.06.51,1.87,1.4,3.36,1.33C1185.92,370.38,1182.22,368,1182.33,371.58Z"/><path class="cls-2" d="M1309.13,426.76a5.44,5.44,0,0,1,.47-2.71c-.94-.68-2.28-2.21-3.32-.67C1306.58,425.44,1307.33,426.84,1309.13,426.76Z"/><path class="cls-2" d="M1306.69,330.84c.64-.89.73-3.34-.48-3.41C1305.55,328.32,1305.45,330.72,1306.69,330.84Z"/><path class="cls-2" d="M1295.19,321.41c.1-3.38.93-3.17,1-7.46C1294,314.8,1293,319.67,1295.19,321.41Z"/><path class="cls-2" d="M1300.47,309.88c-.24,2.15.56,2.76,1.42,3.4C1302,311.3,1301.94,309.58,1300.47,309.88Z"/><path class="cls-2" d="M1324.86,357.8c2.76,10.89-2.84,14.51-6.19,18.92.9.09.35,2.26,1.43,2,1.81-4.22,3.53-5.25,7.19-7.43.34-4,1.87-6.39,1.9-10.81C1328,359.21,1327.17,357.49,1324.86,357.8Z"/><path class="cls-2" d="M811.67,416.15c0-1.19,1.26-3.92,0-4.72a13.53,13.53,0,0,1-1.43,2.71c-1.89-.07-1.5-3.29-3.36-3.35-1.52,2.65.76,4.4,1.43,6C810.06,416.6,810.07,415,811.67,416.15Z"/><path class="cls-2" d="M701.76,549.46c-1.59-.82-5.12.68-4.78,4.77C698.74,552.86,702.1,553.79,701.76,549.46Z"/><path class="cls-2" d="M701.76,565.7c-1.43-1-2.94-.86-3.37,1.29,1.18.43,1.07,2.66,2.87,2.06A5.79,5.79,0,0,0,701.76,565.7Z"/><path class="cls-2" d="M664.4,451.56c-.32-2.89-4-1.15-5.29-2.72.11,1.3-.53,1.52-.49,2.73C659.8,452,663.75,454.72,664.4,451.56Z"/><path class="cls-2" d="M661.13,590c-2.52-.24-1.23,2.34-2,3.4C660.91,593.87,661.08,592.06,661.13,590Z"/><path class="cls-2" d="M706.55,554.84c2.13.87,3.05-1.68,1.9-3.36C706.71,551,706.34,552.56,706.55,554.84Z"/><path class="cls-2" d="M709,610.24c0,2.44.21,4.67,1.42,5.4C711.24,614.13,710.73,610.18,709,610.24Z"/><path class="cls-2" d="M1048.47,440.73c-2.88.13-.72,5.62-4.32,3.39a5,5,0,0,0,.49,2.69c1.89-.92,3.83-1.84,4.33-4.76C1048.57,442,1048.41,441.54,1048.47,440.73Z"/><path class="cls-2" d="M1042.8,561.66c.13-1.39,1.31-1.32,1.43-2.73C1042.77,557.18,1040.8,560.8,1042.8,561.66Z"/><path class="cls-2" d="M1054.57,309c-1.47-.28-1.52,1.47-1.39,3.36C1054.58,312.4,1055.6,310.36,1054.57,309Z"/><path class="cls-2" d="M1124.42,376.65c1.15.65,2.54.45,2.65-1.82C1126.37,375.65,1124.25,374.66,1124.42,376.65Z"/><path class="cls-2" d="M1129.29,348.17c-.45-.81-1.22-1.2-1.34-2.39-1.39-.46-1.3,1.05-2.68.6,0,1.4-.76,1.77-.46,3.62C1126.57,350.47,1129.3,351.48,1129.29,348.17Z"/><path class="cls-2" d="M1123.58,488.57c.77,1.52,3.37,2.25,2.87-1.34C1125.21,487.23,1123.65,486.84,1123.58,488.57Z"/><path class="cls-2" d="M1120.39,351.22c-.75,1.2,0,4.47-.88,5.44-2.13-.58-2.69-3.24-3.56-5.41.44-2.21,3-1.6,3.56-3.68-4.28.15-7,5.38-10.69,9.11,1,1.87,2.53-.58,4,0,1,.49,2.56,3.35,1.34,4.87-1.28-.63-4.88-2.64-5.78,0,.91.14.16,2.65.87,3,3.48-.42,6.3-2.51,8.91-2.42-.61-3.25,1.62-2.65,2.65-3.65C1120.54,355.56,1123.23,352.35,1120.39,351.22Z"/><path class="cls-2" d="M1001.2,561c-2.31-2-3.89,2-3.83,5.43C999.59,566,999.76,562.64,1001.2,561Z"/><path class="cls-2" d="M1045.62,452.88c.78-3-3.52-4.9-3.83-2C1043.19,451.31,1043.45,453.48,1045.62,452.88Z"/><path class="cls-2" d="M1040.33,425.22c.61-3.14-1.14-5.22.94-8.14-1-1.08-1.09-3.4-1-6.08-3.2-.23-1.63-3-3.34-5.39-2.21-.37-2.66,1.67-4.33,2.06.56-3.47-3.25-3.29-3.78-1.38.65.18.42,1.66.45,2.72.29,1.18,2.29-.05,2.42,1.36a5.93,5.93,0,0,1-1,2c-1.61-2.15-2.09,1.5-4.3.66-1.07,7.08,8.2,12.08,1.45,14.86.14,6.33-2.7,8.3-5.72,10.2-1.16,1.56.71,1.22.47,3.34-.62.93-2.07.65-3.34.65-.24,2.2-1.82,2.42-1.91,4.76,4.9,3.38,9.39-4.18,7.16-8.75,2.61-.2,1.55-2.48,3.84-2.07-.11-6.36,4.7-8.59,7.65-6.81.07-.78-.09-1.85.48-2,.41-2.17-1.56-.92-1.45-2.68,1,0,.62-1.9,1.92-1.38C1038.75,423,1038.2,425.93,1040.33,425.22Zm-8.6-5.41c-.75-1-1.06-2.6-1-4.71,2-.34,1,3.5,2.91,3.35C1034,420.29,1031.37,418,1031.73,419.81Z"/><path class="cls-2" d="M1000.73,578.63a5.5,5.5,0,0,0,.47-3.38c-1.16.55-3.3-2.43-3.34.71C999.58,575.75,999.16,578.6,1000.73,578.63Z"/><path class="cls-2" d="M1031.26,443.45c0,2.06.46,3.47,1.42,4,.11-.93.78-1.11,1-2C1032.31,445.62,1032.51,443.46,1031.26,443.45Z"/><path class="cls-2" d="M1045.61,434.67c-2.29,1.09-3.3,3.88-5.28,5.41,1.72.1-.06,1.23,1.45,2C1044.32,441.43,1046.13,439.73,1045.61,434.67Z"/><path class="cls-2" d="M1031.85,587.4c0,2.2.76,3.35,2.37,3.36C1035.54,588.64,1034,586.51,1031.85,587.4Z"/><path class="cls-2" d="M1027.49,565.75c-4-2.84-4.5-9.78-6.24-14.2-1.16,4.09,1,5.93,0,10.84C1024.34,561.66,1024.5,568.62,1027.49,565.75Z"/><path class="cls-2" d="M1218.73,426.8c.38-3.86-2.68-3.28-3.1-.62C1215.67,427.93,1218.16,427.57,1218.73,426.8Z"/><path class="cls-2" d="M1276.57,318.06c-1.08-2.72-5.22-2.16-5.77,1.37.81.59.88,2.32,1.43,3.35,1.44,0,1.63-1.75,2.88-2,.32,3.4,2.83,3.67,3.35,6.74,3-2.34,4.7-6.43,5.73-11.47-2.51-1.31-5.32,2.25-6.72,4.71-.27-.89-1.82-.07-1.88-1.3C1275.59,318.5,1276.42,318.76,1276.57,318.06Z"/><path class="cls-2" d="M1287.6,313.93c0-.36-3.63-.5-3.1,1.86C1285.41,316.84,1287.41,315.76,1287.6,313.93Z"/><path class="cls-2" d="M1300.93,330.14h-2.38c-.51-.83-.46-2.45-1-3.36-2.18.11-3.3,1.65-5.29,2.05.08,3.05-1,4.35-1.89,6.08,1.87.27,1.54,2.83.5,4,1.14,1.11,3.51.4,3.35,3.41-.93,2.61-3.7,4.46-6.24,2.72-.26,1.41-1.2,1.93-.94,4a3.87,3.87,0,0,0,4.29,0c-.55,5.79,2.59,6.25,2.4,11.53,1.51.32,1.86-1,2.87-1.38.11-3.52-1.28-4.91-1.91-7.39,3.33-4.35,1.06-13.53,4.78-16.27,1.32,2.79,2-.08,3.35.7,4.18,2.34,1.8,14.92,8.14,10.77-.4,2.35.52,2.88.94,4.07,2.3-.86,2.85-4.55,2.87-6.79-1.42,1-2.76.59-2.87-2m-14.34-12.17c1.33,0,.87,3.47-.51,3.38C1296.22,332.36,1297.34,331.58,1297.61,330.14Z"/><path class="cls-2" d="M1234.58,466.06c-1.91-.13-1.77,2.51-2.42,4.05C1234,470.31,1235.61,467.91,1234.58,466.06Z"/><path class="cls-2" d="M1224.41,360c.87-2,2.54-5.58,1.45-8.11C1222.38,351.6,1220.46,359,1224.41,360Z"/><path class="cls-2" d="M1233,343.81c-1.2-1.24-3.51.54-3.34,3.36C1231,346.31,1233.33,346.94,1233,343.81Z"/><path class="cls-2" d="M1238.38,503.23c1.91.86,1.44-1.6,1.47-3.39C1238.33,499.55,1238.29,501.32,1238.38,503.23Z"/><path class="cls-2" d="M1243.16,486.28c0-2.15-.58-3.6-1.88-4-1.85-.23-2.44,3.67-1.46,5.35C1241.59,488.12,1241.68,486.22,1243.16,486.28Z"/><path class="cls-2" d="M1239.8,445.12c.91-1.3.53-4.13-1.43-3.41A3.13,3.13,0,0,0,1239.8,445.12Z"/><path class="cls-2" d="M1245.93,352.55c-1.56.19-3.09,2.72-1.91,4.76l1.47,0C1245,354.74,1247.06,354.08,1245.93,352.55Z"/><path class="cls-2" d="M1229.24,408c-1.63-1.9-1.9-4-1.91-6.76a7.45,7.45,0,0,0-2.89,4.73C1226.27,406.17,1227.21,410.19,1229.24,408Z"/><path class="cls-2" d="M1221.15,468.8c1.26,0,2.83.39,2.88-1.41-.55-.73-1.68-.71-2.87-.61Z"/><path class="cls-2" d="M1223.54,452.57c-1.56,0-1.85,1.91-1.92,4.07C1223.6,457.13,1224.63,454.31,1223.54,452.57Z"/><path class="cls-2" d="M1225.89,386.36c.14-1.58.75-2.54.47-4.7-1.53.6-3.34.69-3.35,3.36C1223.89,385.63,1224.23,386.9,1225.89,386.36Z"/><path class="cls-2" d="M1226.9,483.65c-.78-2.93-3.93-2.5-4.8-5.4-2.78,1,.38,8.2.49,11.47C1224.21,487.92,1225.28,485.4,1226.9,483.65Z"/><path class="cls-2" d="M1230.78,434.64a1.16,1.16,0,0,0-1-.28c.31-3.33.43-7,3.31-7.47,1.54-.35,1.1,2.08,2.88,1.32.22-3-1.72-3-1.91-5.38-1.37.11-2,1.26-3.39,1.38a7.34,7.34,0,0,1-1.41,4.7c-1.22.57-2.61-2-3.34,0,2.94.75.78,5.87,1,9.12a.5.5,0,0,0-.12.24h.14a3.11,3.11,0,0,0,.46,1.47c1.14-.23,1.71-1.29,2-2.64A23,23,0,0,0,1230.78,434.64Z"/><path class="cls-2" d="M1218.67,345.17c-.12-2.42,1.44-2.49,1.44-4.76-2.29-.29-3.28,1.22-3.82,3.42C1217.2,344.1,1217.49,345.29,1218.67,345.17Z"/><path class="cls-2" d="M1229.27,459.32c0-1.8.18-3.86-.46-4.73C1226.31,454.29,1227.28,460,1229.27,459.32Z"/><path class="cls-2" d="M1233.14,514.05c.56-3.24-2-4.28-2.86-3.38C1230.05,513.49,1231.47,513.93,1233.14,514.05Z"/><path class="cls-2" d="M1237.44,493.09c-2,.07-3,1.59-2.85,4.73C1236.77,498,1235.92,493.88,1237.44,493.09Z"/><path class="cls-2" d="M1234.09,485v2.67C1236.31,488.74,1235.75,484.19,1234.09,485Z"/><path class="cls-2" d="M1238.71,314.74c.57-1,.12-4.61-1.41-4.74C1237.48,312,1237.57,314.1,1238.71,314.74Z"/><path class="cls-2" d="M1278.54,445.71c1.8.05,1.36.79,2.85,0C1282.19,441.91,1277.92,442.35,1278.54,445.71Z"/><path class="cls-2" d="M1291,441.64c-1.64,0-1.76,2-2.39,3.39,1.81,0,1.36-.73,2.87,0C1292,442.89,1291.67,443.21,1291,441.64Z"/><path class="cls-2" d="M1291.46,492.32c-1.94-4-1.81-7.58-3.81-12.17-.89-.13-1.05.75-1.94.69C1285.9,486.71,1288.18,493.14,1291.46,492.32Z"/><path class="cls-2" d="M1283.33,470c3.51-.74,5.17-3.51,4.79-8.09,2.88-1.08,4.41-8,1.91-10.85-3.85.62-5.9,3.68-4.79,9.5C1283.79,462.93,1282.28,466.05,1283.33,470Z"/><path class="cls-2" d="M1240.93,378.88a1.18,1.18,0,0,0-1.58-.3.59.59,0,0,0-.6-.35c.11,2.9-3,.95-4.24,3.42,2,7.54-5.46,9.91-4.32,16.19-.72,1-2.71.17-2.38,2.68,3.73-.15,4.45-10.23,8.58-12.16-.28-3.59.69-5.33,2.37-6.07.29,1.21.31,2.81,1,3.39-.26-2.22.14-3.41,1-4.06-.69,0-.83-.72-.93-1.54C1240.43,380,1240.87,379.79,1240.93,378.88Z"/><path class="cls-2" d="M1246,361.3c-4.32,0-4.55,5.73-8.12,6.8v4c3.23-1.11,4.58-8,8.59-4.05C1246.29,365.78,1246.79,362.59,1246,361.3Z"/><path class="cls-2" d="M1286.73,517.32h-1.93c0,1.71.28,3.22,1,4C1286.2,520.18,1287.1,519.64,1286.73,517.32Z"/><path class="cls-2" d="M1248.45,497.13c.44-1.19,1.49-1.51,2.84-1.35.06-2.13-1.42-2-2.86-2C1248.72,495,1247,496.54,1248.45,497.13Z"/><path class="cls-2" d="M1247,435v3.36C1249.26,439.09,1249.56,433.94,1247,435Z"/><path class="cls-2" d="M1289.49,325.42c1.09-1.55-.12-3.34,0-5.38C1285.63,319.45,1287.6,324.92,1289.49,325.42Z"/><path class="cls-2" d="M1293.32,370.7c-.11-4.52-4.22-5.68-2.4-10.79-2.19-.5-3.18-2.7-4.8-4.07-1.47,1.77-3.37-.19-5.24,0,.46,6.14,5.63,5.52,7.64,9.46-.46,2.69-.59,5.91-2.85,6.07.11,2.32,1,3.52,2.85,3.36C1290.51,373.94,1290,369.6,1293.32,370.7Z"/><path class="cls-2" d="M1284.3,497.72c1.33-1.58.32-2.22.5-5.38-.9.09-1.09-.78-1.91-.69C1283.69,493.21,1283.62,496,1284.3,497.72Z"/><path class="cls-2" d="M1278,393.7c-4.73-4-1.13-15.82-5.23-20.94-2.14,1.81-2.75,5.21-1.94,9.48C1264.26,388.21,1274.37,396.43,1278,393.7Z"/><path class="cls-2" d="M1285.13,319.4h2.42c-.07-1.72-.08-3.27.46-4.08A8.45,8.45,0,0,0,1285.13,319.4Z"/><path class="cls-2" d="M1238.79,416.05c-1.84,1-4.06.16-6.66.69-.25,4.88,3.58,4,5.27,6.08-.09,4,1.21,5.86,1.39,9.45,2.71-.43,3.46.18,4.82-1.37-1.41-5.73-.43-8-1-13.47-.72,1-.11,3.86-1.9,3.33a2.55,2.55,0,0,1-2.39-2C1239.08,418.67,1238.78,417.14,1238.79,416.05Z"/><path class="cls-2" d="M1236.35,332.31c-.23,3.46.66,5.36,2.92,5.37-.43-2.76.69-3.43.46-6.06C1238.46,331.6,1237,331.35,1236.35,332.31Z"/><path class="cls-2" d="M1220.67,470.12a4.14,4.14,0,0,0-3.32-3.34c0,3,.22,5.52,1.9,6.06A2.73,2.73,0,0,0,1220.67,470.12Z"/><path class="cls-2" d="M1222.75,448.59c-1.51-4.81-4.85-4.34-6.22-8.51.85.17,1-.66,1.78-.6a7.94,7.94,0,0,1,.43-7.24c-1.07.25-1-1.11-2.23-.61-.52,6.51-2.08,12.29,1.36,15.75C1219.55,445.32,1220.75,449.08,1222.75,448.59Z"/><path class="cls-2" d="M1239.39,512.69c.13-1.6.74-2.54.45-4.73C1237.69,507.48,1238.25,512.16,1239.39,512.69Z"/><path class="cls-2" d="M1238.86,524.8c1.27-.09,1.9-1,2-2.68-.9.17-1.07-.75-2-.67Z"/><path class="cls-2" d="M1275.71,472.1c.76-8.1-7.44-2.77-4.45,2.43C1271.6,472.19,1274.71,473.6,1275.71,472.1Z"/><path class="cls-2" d="M1272.82,455.17c-.29-1.62-.42-3.46-1.91-3.35C1269.34,454.38,1271.54,458.27,1272.82,455.17Z"/><path class="cls-2" d="M1279.71,462.4c-.27-1.67-.47-3.38-2.25-3V463A2.44,2.44,0,0,0,1279.71,462.4Z"/><path class="cls-2" d="M1281.32,351.14a5.75,5.75,0,0,0-.45-3.39c-1.18.36-2.45.58-2.39,2.76C1279.64,351.89,1279.48,351.42,1281.32,351.14Z"/><path class="cls-2" d="M1272.81,437.66h-2.41c-.25,1.66-.64,2.33.48,3.33C1271,439.08,1273.17,440.18,1272.81,437.66Z"/><path class="cls-2" d="M1275.26,484.82c.12-2.47,2-2.61,1.75-5.47a15.29,15.29,0,0,1-4.41,1.27V483C1274,483,1274.31,484.29,1275.26,484.82Z"/><path class="cls-2" d="M1271.75,343.73c-2.08-.49-2.7,1.14-4.76.65v2.05c2.28-1.15,3.1.19,4.3,2C1272.26,347.15,1272.41,345.73,1271.75,343.73Z"/><path class="cls-2" d="M1249.8,400.47c.24-2.7-.52-4.21-2.39-4-.11,1-.79,1.16-1,2C1247.82,398.78,1247.93,400.86,1249.8,400.47Z"/><path class="cls-2" d="M1249.89,518.72c.34-1.84-.94-1.35-1-2.7-1.2.12-1.86,1-1.88,2.7A1.8,1.8,0,0,0,1249.89,518.72Z"/><path class="cls-2" d="M1248.93,524.13c-2-.13-2.82,5-1.88,6.78C1247,527.6,1249,527.34,1248.93,524.13Z"/><path class="cls-2" d="M1241.64,339.73c-.46-5.49-3.56,2-2.36,6.07C1241.06,345.24,1240.82,341.74,1241.64,339.73Z"/><path class="cls-2" d="M1268.55,512a6.51,6.51,0,0,0-1,4.71C1270,518,1270.12,512.19,1268.55,512Z"/><path class="cls-2" d="M1266.8,486.68c.56-4.51-3.15-2.84-3.54-.58C1263.92,487,1265.52,486.6,1266.8,486.68Z"/><path class="cls-2" d="M1268,354.51c1.85,1.8,2.5-2.91,3.34-4.73C1269.31,350.14,1268.65,352.4,1268,354.51Z"/><path class="cls-2" d="M1270.83,366.69c-1.19-.11-1.47,1.06-2.38,1.36a9.73,9.73,0,0,1-1-5.4c-1.56.14-2-1-4.3-1.36-.89,3-3.79,3.23-4.31,6.78.33,1.06,1.34,1.18,1.74,2.17a1.77,1.77,0,0,0-.54.12v2.42c1.35,0,2.92.36,2.66-1.82a1.33,1.33,0,0,1-.56-.11,2.75,2.75,0,0,1,1-.79c-.42-2.63-1-6.46,1.45-6.75,1,3.26,2.29,6.24,4.33,8.11A10.1,10.1,0,0,0,1270.83,366.69Z"/><path class="cls-2" d="M1258.91,433.57c2.3.55,2.83-1.38,2.88-4.06C1259.6,429.12,1259.07,431.07,1258.91,433.57Z"/><path class="cls-2" d="M1261.77,400.44c-.81-.6-1-2.18-1.91-2.66-2.15,7.82,4.65,8.66,5.74,14.21.51-5.51-1-7.88.5-13.52C1263.79,398,1262.94,399.41,1261.77,400.44Z"/><path class="cls-2" d="M1252.17,360.65c.07-2.14-1.22-2.32-2.39-2.69C1249.42,360.59,1251.35,361.69,1252.17,360.65Z"/><path class="cls-2" d="M1266.53,404.5l0,2.74C1268.81,408.3,1268.21,403.77,1266.53,404.5Z"/><path class="cls-2" d="M1266.74,421.24c.56-2-1.4-.48-.84-2.41,1.42-.78.31,1.91,1.74,1.2-.17-2-1.69-2.09-2.66-3-.81,1.15,0,1.52,0,3-1,.35-1.45,1.28-2.23,1.82-.69-1.38-1.73-4.47-3.1-3,1.93,3.41,3.38,10.65,8,8.44-1.56-2.62,0-4.26.89-6.69C1267.68,420.46,1267.56,421.33,1266.74,421.24Z"/><path class="cls-2" d="M1267.45,330.19c.13-1.36,2.14-.17,1.9-2-.73-.13-.36-1.77-1.4-1.4C1268.85,329.09,1265.8,329,1267.45,330.19Z"/><path class="cls-2" d="M1257.49,434.29c.33-3.42-1.32-4-1.47-6.78C1253.13,428.27,1254,435.32,1257.49,434.29Z"/><path class="cls-2" d="M1254.63,494.43c-.11,1.57-2.25.39-1.92,2.67.94-.12,1.1.78,1.94.68C1254.92,497.39,1255.76,494.59,1254.63,494.43Z"/><path class="cls-2" d="M1256.5,408c.56-.83.55-2.4.5-4.08-4,.84.06-6.15-2.41-6.74-.72,1.89-1,4.42-3.37,4.07a5.61,5.61,0,0,1-.44,3.31C1253.5,404.26,1254.48,405.9,1256.5,408Z"/><path class="cls-2" d="M1253.7,509.28c-.43-1.28-1.8-4.17-2.41-1.34C1251.76,508.49,1252.87,511.47,1253.7,509.28Z"/><path class="cls-2" d="M1256,329.56c-.55,2-.1,2.32.5,4,1.41,0,1.8-1.52,2.4-2.66A8.93,8.93,0,0,0,1256,329.56Z"/><path class="cls-2" d="M1265.55,360.64c2.41-2.89,1.08-11.07-2.84-10.84,0,4.11.84,6.34,0,8.78C1264,358.86,1264.15,360.62,1265.55,360.64Z"/><path class="cls-2" d="M1253.11,329.57c-2.61,1.52-2.59,5.8-.95,8.81C1255,338,1255.41,331.21,1253.11,329.57Z"/><path class="cls-2" d="M1332.07,397.65c1.73.48,1.22-5.68,0-5.4C1331,393.83,1332.15,395.58,1332.07,397.65Z"/><path class="cls-2" d="M1319.63,380.1c-.57,1.79-.33,2.59.49,4.77,1.55.15,2.29-.84,2.37-2.72C1322.1,380.68,1321.3,379.73,1319.63,380.1Z"/><path class="cls-2" d="M1329.71,403.05c.25,1.66.41,3.51,1.89,3.38C1331.79,404.12,1331.44,402.58,1329.71,403.05Z"/><path class="cls-2" d="M1316.26,355.81c1.25.74,1.21,3.25,3.37,2.69"/><path class="cls-2" d="M1308.18,417.94c.82-1.72,1.17-4.64,3.35-2.71-.45-2.2-1.43-3.78-1.43-6.74,1,0,.61-1.8,1.91-1.32,2.83,1.26,3.2,2.33,6.68,2,.88-5.08,3.77-8.86,1.89-14.22-2.55,3.2-1.38,9.75-6.65,10.14-.4-5.91,0-7.31-2.43-11.46a6.46,6.46,0,0,1,3.34-6.07c.63,1.13,1,2.63,2.41,2.66,1.25-1.17,1-4.48,1-7.42-2.1,0-4.43-.39-5.27,1.35-1.38-2.37-1.86-7.42-.49-10.11-2.38,0-2.17-5-1.42-7.45-1.33-1.92-2.34-4.38-3.85-6.06-1.19,2.77-3.65,3.81-4.3,7.45,3.13,5.27,11.79,17,2.88,21.6-1.35-.1-2-2.53-3.34-.65,1.79,3.35,6.1,6.37,3.35,12.14,1,1.92,3,2.54,3.35,5.38-.34,2.88-1.47,4.69-3.81,4.75,0,4.8-2.33,4.92-3.85,8.78C1305.1,420.21,1304.34,416.13,1308.18,417.94Z"/><path class="cls-2" d="M1333,370c.84-1.23.23-3.79-.5-4.72C1332.84,366.62,1332,369.63,1333,370Z"/><path class="cls-2" d="M1331.12,382.12c.58.72,4.16,1.87,3.35-1.34C1334,379.42,1330.5,379.66,1331.12,382.12Z"/><path class="cls-2" d="M1327.32,445.62c1.86-.55,2-4.77,0-4.71C1327.75,443.39,1326.47,444.51,1327.32,445.62Z"/><path class="cls-2" d="M1333,375.37c.2-1.38.67-4.34-1-4.74C1332.14,372.54,1331.66,375.26,1333,375.37Z"/><path class="cls-2" d="M1316.32,436.18c-.42-3.23.94-9-1-10.12-1.46,1.91-.32,7.68-.45,10.13Z"/><path class="cls-2" d="M1316.27,364.62c1.6.64.73-2.15,1-3.46C1315.59,360.73,1315.51,363.58,1316.27,364.62Z"/><path class="cls-2" d="M1306.74,380.09c-.6-.69-3.06-.23-3.36,1.41C1304.11,383.09,1306.59,382.92,1306.74,380.09Z"/><path class="cls-2" d="M1301.94,395.67c0-1.57.83-2,.46-4.05-1.69.88-1.73-.05-3.33.7C1299,396.33,1300.65,394.68,1301.94,395.67Z"/><path class="cls-2" d="M842.73,399.91c4.11-1.72-2-5.35,0,0Z"/><polygon class="cls-2" points="910.08 463.69 910.07 463.7 910.09 463.75 910.08 463.69"/><path d="M256.4,24.9,458.66,465.8H350.38L296.24,348H128.63L71.9,465.8H0L210.49,24.9ZM148.55,307.71H278.49l-64.1-139.46Z"/><path d="M399.67,60.85q0-5.87-2.33-9T392,48.82a11.36,11.36,0,0,0-3.43.61,28.44,28.44,0,0,0-4.05,1.66,34.91,34.91,0,0,0-4.34,2.63,37.86,37.86,0,0,0-4.25,3.49V112.8H352.77V36.89h23.14v6a38.44,38.44,0,0,1,11.42-5.66,41.84,41.84,0,0,1,12.13-1.82,22.25,22.25,0,0,1,8.9,1.82,23.24,23.24,0,0,1,12.38,12.18,21.87,21.87,0,0,1,1.87,9V112.8H399.67Z"/><path d="M501.14,112.8H478v-6.07q-1.92,1.62-3.74,3a21.15,21.15,0,0,1-4.09,2.37,23.56,23.56,0,0,1-5.11,1.57,35.13,35.13,0,0,1-6.67.55,27.64,27.64,0,0,1-9.45-1.51,21.37,21.37,0,0,1-7.13-4.15,17.81,17.81,0,0,1-4.49-6.21,19.3,19.3,0,0,1-1.57-7.84,18.15,18.15,0,0,1,1.67-7.88A22,22,0,0,1,442,80.25a33.63,33.63,0,0,1,6.73-5,74.22,74.22,0,0,1,8.23-4.09c2.94-1.25,6-2.4,9.15-3.44s6.3-2,9.4-3l2.53-.61V56.6q0-7.27-2.78-10.31a9.6,9.6,0,0,0-7.43-3q-5.46,0-7.58,2.63a9.77,9.77,0,0,0-2.12,6.37,19,19,0,0,1-.46,4.14,9.2,9.2,0,0,1-1.57,3.54,7.57,7.57,0,0,1-3.18,2.42,12.92,12.92,0,0,1-5.2.91,11.18,11.18,0,0,1-7.89-2.78,9.11,9.11,0,0,1-3-7,11.56,11.56,0,0,1,2.68-7.33,22.46,22.46,0,0,1,7.23-5.81,43.36,43.36,0,0,1,10.51-3.84,54.13,54.13,0,0,1,12.63-1.42,59,59,0,0,1,14.1,1.47,28.64,28.64,0,0,1,9.75,4.19,16.92,16.92,0,0,1,5.66,6.57,19.73,19.73,0,0,1,1.82,8.59ZM478,73.58a71.63,71.63,0,0,0-6.72,3.29A42.88,42.88,0,0,0,465.11,81a22.19,22.19,0,0,0-4.5,4.75A9.29,9.29,0,0,0,458.89,91a15,15,0,0,0,.56,4.09A10.82,10.82,0,0,0,461,98.45a9.42,9.42,0,0,0,2.22,2.27,4.47,4.47,0,0,0,2.63.86,11.06,11.06,0,0,0,5.71-1.72A77,77,0,0,0,478,95.52Z"/><path d="M544.91,112.8H522V6.37L544.91,0Z"/><path d="M553.7,35.48h24.36l24.06,46.79,21.22-46.79h16.28L601.41,120a32.67,32.67,0,0,1-5.21,8.08,36.38,36.38,0,0,1-7,6.22,32.75,32.75,0,0,1-8,4,25.5,25.5,0,0,1-8.14,1.41,21.07,21.07,0,0,1-5.71-.75,17,17,0,0,1-4.7-2.08,11,11,0,0,1-3.24-3.13,7,7,0,0,1-1.21-3.94,9.13,9.13,0,0,1,.51-2.93,7,7,0,0,1,1.71-2.73,8.84,8.84,0,0,1,3.29-2,14.82,14.82,0,0,1,5.1-.76,7,7,0,0,1,3.39.71,16.27,16.27,0,0,1,2.27,1.51c.68.54,1.37,1,2.08,1.52a4.92,4.92,0,0,0,2.78.71,3.36,3.36,0,0,0,2.32-1.27,18.26,18.26,0,0,0,2.38-3.18,46.27,46.27,0,0,0,2.17-4.09c.67-1.45,1.28-2.75,1.82-3.89l2.73-6.07Z"/><path d="M658,91.57a22.57,22.57,0,0,0,5.76,9.66,13.26,13.26,0,0,0,9.4,3.48,12.51,12.51,0,0,0,7.83-2.27,6.75,6.75,0,0,0,3-5.51,11.18,11.18,0,0,0-1-4.85,12.9,12.9,0,0,0-2.83-3.84,23.41,23.41,0,0,0-4.25-3.14q-2.43-1.41-5.25-2.72-4.56-2-9-4.35a43.26,43.26,0,0,1-8-5.31,25.36,25.36,0,0,1-5.77-6.87,17.74,17.74,0,0,1-2.22-8.95,19,19,0,0,1,2-8.79,20.28,20.28,0,0,1,5.66-6.77,27.12,27.12,0,0,1,8.69-4.4,37.59,37.59,0,0,1,11.12-1.56,43,43,0,0,1,9.86,1,26.93,26.93,0,0,1,7.63,3,24.25,24.25,0,0,1,5.81,4.75,39.2,39.2,0,0,1,4.5,6.21L687.63,55a19.92,19.92,0,0,0-2.58-5.66,11.71,11.71,0,0,0-3.08-3,7.93,7.93,0,0,0-3.19-1.21,21,21,0,0,0-2.78-.2,14.93,14.93,0,0,0-7.48,1.82A5.73,5.73,0,0,0,665.29,52q0,4.35,4.24,7.68a44.44,44.44,0,0,0,10.62,6q4.85,2,9.4,4.44a45.08,45.08,0,0,1,8.13,5.51,25.73,25.73,0,0,1,5.71,6.83,16.63,16.63,0,0,1,2.13,8.38,25.72,25.72,0,0,1-1.67,9.3,18.8,18.8,0,0,1-5.31,7.53,26.41,26.41,0,0,1-9.45,5.06,47,47,0,0,1-14.2,1.87,39,39,0,0,1-12-1.62,29,29,0,0,1-8.39-4.19,25.31,25.31,0,0,1-5.66-5.77,69.89,69.89,0,0,1-3.94-6.31Z"/><path d="M720.37,12.63a10.3,10.3,0,0,1,1-4.39A10.87,10.87,0,0,1,724,4.65,13.21,13.21,0,0,1,728,2.27a14.15,14.15,0,0,1,9.66,0,13.09,13.09,0,0,1,4,2.38,10.87,10.87,0,0,1,2.68,3.59,10.3,10.3,0,0,1,1,4.39,10,10,0,0,1-1,4.35,11,11,0,0,1-2.68,3.54,12.87,12.87,0,0,1-4,2.37,14,14,0,0,1-9.66,0A13,13,0,0,1,724,20.52,11,11,0,0,1,721.33,17,10,10,0,0,1,720.37,12.63Zm1,28.41,23-6.37V112.8h-23Z"/><path d="M773.24,91.57a22.37,22.37,0,0,0,5.76,9.66,13.25,13.25,0,0,0,9.4,3.48,12.55,12.55,0,0,0,7.83-2.27,6.74,6.74,0,0,0,3-5.51,11.18,11.18,0,0,0-1-4.85,12.73,12.73,0,0,0-2.83-3.84,23.32,23.32,0,0,0-4.24-3.14q-2.43-1.41-5.26-2.72-4.54-2-9-4.35a44,44,0,0,1-8-5.31,25.32,25.32,0,0,1-5.76-6.87,17.74,17.74,0,0,1-2.23-8.95,19,19,0,0,1,2-8.79,20,20,0,0,1,5.66-6.77,27,27,0,0,1,8.69-4.4,37.54,37.54,0,0,1,11.12-1.56,42.88,42.88,0,0,1,9.85,1,26.81,26.81,0,0,1,7.63,3,24.05,24.05,0,0,1,5.81,4.75,39.2,39.2,0,0,1,4.5,6.21L802.85,55a19.39,19.39,0,0,0-2.58-5.66,11.56,11.56,0,0,0-3.08-3A7.94,7.94,0,0,0,794,45.08a21.08,21.08,0,0,0-2.78-.2,14.91,14.91,0,0,0-7.48,1.82A5.72,5.72,0,0,0,780.51,52q0,4.35,4.25,7.68a44.56,44.56,0,0,0,10.61,6q4.86,2,9.4,4.44a45.52,45.52,0,0,1,8.14,5.51,25.92,25.92,0,0,1,5.71,6.83,16.73,16.73,0,0,1,2.12,8.38,25.72,25.72,0,0,1-1.67,9.3,18.88,18.88,0,0,1-5.3,7.53,26.5,26.5,0,0,1-9.45,5.06,47,47,0,0,1-14.2,1.87,39,39,0,0,1-12-1.62,29,29,0,0,1-8.39-4.19,25.31,25.31,0,0,1-5.66-5.77,65.67,65.67,0,0,1-3.94-6.31Z"/><path d="M476.2,287.5a35.25,35.25,0,0,1-9.2,4.55,31.34,31.34,0,0,1-9.8,1.62,29.18,29.18,0,0,1-13.44-3.19,35.89,35.89,0,0,1-11-8.59,41.57,41.57,0,0,1-10.06-27.14A35.75,35.75,0,0,1,426,239.9,42.72,42.72,0,0,1,435,227a44.92,44.92,0,0,1,13.3-9,39.25,39.25,0,0,1,16.32-3.43,32,32,0,0,1,11.62,1.92V185.52l22.95-6.37V292H476.2Zm0-47.3a18.57,18.57,0,0,0-1.16-6.67,17.07,17.07,0,0,0-3.08-5.21,14.81,14.81,0,0,0-4.25-3.38,9.8,9.8,0,0,0-10.71.81,17.81,17.81,0,0,0-4.95,5.6,32.32,32.32,0,0,0-3.39,8.55,43.74,43.74,0,0,0-1.26,10.81,50.42,50.42,0,0,0,1.41,12,39.22,39.22,0,0,0,3.89,10.11,23.39,23.39,0,0,0,5.76,6.92,11.19,11.19,0,0,0,7,2.58,12.36,12.36,0,0,0,5.66-1.57,16.16,16.16,0,0,0,5.05-4Z"/><path d="M532.1,214.63l22.23,47.6L577,214.63h15.77l-37.5,79H544.73l-36.79-79Z"/><path d="M602.24,191.78a10.3,10.3,0,0,1,1-4.39,10.74,10.74,0,0,1,2.68-3.59,13.21,13.21,0,0,1,3.94-2.38,13.4,13.4,0,0,1,4.85-.86,13.58,13.58,0,0,1,4.81.86,13.09,13.09,0,0,1,4,2.38,11,11,0,0,1,2.68,3.59,10.3,10.3,0,0,1,1,4.39,10,10,0,0,1-1,4.35,11.14,11.14,0,0,1-2.68,3.54,12.87,12.87,0,0,1-4,2.37,13.36,13.36,0,0,1-4.81.86,13.19,13.19,0,0,1-4.85-.86,13,13,0,0,1-3.94-2.37,10.85,10.85,0,0,1-2.68-3.54A10,10,0,0,1,602.24,191.78Zm1,28.41,23-6.37V292h-23Z"/><path d="M681.18,223.72a12.28,12.28,0,0,0-6.62,1.87,17.12,17.12,0,0,0-5.1,5,24.84,24.84,0,0,0-3.29,7.27,32.28,32.28,0,0,0-1.16,8.7,51.56,51.56,0,0,0,1.41,12.18,35.81,35.81,0,0,0,4.1,10.2,23.12,23.12,0,0,0,6.37,7,13.84,13.84,0,0,0,8.23,2.63,15.53,15.53,0,0,0,6.93-1.52,19.78,19.78,0,0,0,5.61-4.19,32.46,32.46,0,0,0,4.54-6.22,75.59,75.59,0,0,0,3.74-7.48l11,2.93q-3.84,15-13.39,23.1t-23.7,8.13a36.63,36.63,0,0,1-14.76-3A38.22,38.22,0,0,1,645,270.22a36.4,36.4,0,0,1-3-14.66,40.17,40.17,0,0,1,3.19-15.87,42,42,0,0,1,8.69-13.09,41,41,0,0,1,12.84-8.84,38.15,38.15,0,0,1,15.61-3.23,52.4,52.4,0,0,1,12.64,1.41,33.17,33.17,0,0,1,9.65,3.94,19.52,19.52,0,0,1,6.17,6,13.79,13.79,0,0,1,2.17,7.48,6.55,6.55,0,0,1-1.11,3.63,11.2,11.2,0,0,1-3,3,16.18,16.18,0,0,1-9,2.83,14.06,14.06,0,0,1-4.8-.76,10.36,10.36,0,0,1-3.49-2.07,9.09,9.09,0,0,1-2.12-2.88,8,8,0,0,1-.71-3.29c0-1.14,0-2.32-.1-3.54a8.66,8.66,0,0,0-.81-3.28,5.57,5.57,0,0,0-2.22-2.38A8.59,8.59,0,0,0,681.18,223.72Z"/><path d="M766.59,293.67a39.14,39.14,0,0,1-15.21-3,40.19,40.19,0,0,1-12.44-8.09,38.33,38.33,0,0,1-8.38-11.88,33.91,33.91,0,0,1-3.09-14.25,48.12,48.12,0,0,1,2.83-16.68,39.3,39.3,0,0,1,8-13.29,37,37,0,0,1,12.48-8.79,43,43,0,0,1,30.73-.66A34.51,34.51,0,0,1,792.82,224a31.56,31.56,0,0,1,7.33,10.31A30.89,30.89,0,0,1,802.77,247H750.11A56.79,56.79,0,0,0,752,259a38.45,38.45,0,0,0,4.25,10.11,23.28,23.28,0,0,0,6.32,6.92,13.47,13.47,0,0,0,8,2.58,22.2,22.2,0,0,0,7.53-1.32,26.1,26.1,0,0,0,12.13-8.89,22.18,22.18,0,0,0,3.39-6.47l11.72,1.82a36.53,36.53,0,0,1-5.66,11.62,46.11,46.11,0,0,1-9.15,9.5,43.93,43.93,0,0,1-11.42,6.42A34.79,34.79,0,0,1,766.59,293.67Zm9.7-54.58a21.68,21.68,0,0,0-1.41-6.12,15.62,15.62,0,0,0-2.93-4.75,13.57,13.57,0,0,0-4.2-3.08,11.87,11.87,0,0,0-5.1-1.11,9.08,9.08,0,0,0-4.2,1.06,12.25,12.25,0,0,0-3.74,3,18.28,18.28,0,0,0-2.83,4.75,23,23,0,0,0-1.56,6.22Z"/><path d="M512,392.23a12.17,12.17,0,0,0-6.62,1.87,17.24,17.24,0,0,0-5.11,5,24.88,24.88,0,0,0-3.28,7.28,31.82,31.82,0,0,0-1.16,8.69,51.44,51.44,0,0,0,1.41,12.18,35.76,35.76,0,0,0,4.1,10.21,23.29,23.29,0,0,0,6.36,7,13.83,13.83,0,0,0,8.24,2.63,15.33,15.33,0,0,0,6.92-1.52,19.33,19.33,0,0,0,5.61-4.19,32.19,32.19,0,0,0,4.55-6.22,74.51,74.51,0,0,0,3.74-7.48l11,2.94q-3.84,15-13.39,23.09t-23.7,8.14a36.8,36.8,0,0,1-14.76-3,38.35,38.35,0,0,1-20.17-20.17,36.52,36.52,0,0,1-3-14.65A39.93,39.93,0,0,1,476,408.2a41.87,41.87,0,0,1,8.69-13.09,41,41,0,0,1,12.84-8.85A38.31,38.31,0,0,1,513.1,383a52.4,52.4,0,0,1,12.64,1.41,32.9,32.9,0,0,1,9.65,3.95,19.35,19.35,0,0,1,6.16,6,13.74,13.74,0,0,1,2.18,7.48,6.54,6.54,0,0,1-1.12,3.64,11,11,0,0,1-3,3,15.21,15.21,0,0,1-4.24,2.07,15.63,15.63,0,0,1-4.8.76,13.82,13.82,0,0,1-4.8-.76,10,10,0,0,1-3.49-2.07,8.73,8.73,0,0,1-2.12-2.88,7.76,7.76,0,0,1-.71-3.29c0-1.14,0-2.32-.1-3.53a8.66,8.66,0,0,0-.81-3.29,5.55,5.55,0,0,0-2.22-2.37A8.51,8.51,0,0,0,512,392.23Z"/><path d="M556.46,393.84v-7.68a15.73,15.73,0,0,0,7.78-2,23,23,0,0,0,6.57-5.56,36.48,36.48,0,0,0,5.06-8.18,43.46,43.46,0,0,0,3.13-10h12.74v24.16h18.7v9.29h-18.7v49a6.76,6.76,0,0,0,1.16,4,3.67,3.67,0,0,0,3.18,1.67,5.34,5.34,0,0,0,2.63-.81,21,21,0,0,0,2.73-1.87,20.35,20.35,0,0,0,2.32-2.18,16.26,16.26,0,0,0,1.42-1.71l7.88,6.26a48.7,48.7,0,0,1-4.19,5.51,24,24,0,0,1-5.26,4.45,25.51,25.51,0,0,1-6.87,2.93,34,34,0,0,1-9,1.06,23.35,23.35,0,0,1-8.33-1.36,16,16,0,0,1-6-3.84,16.32,16.32,0,0,1-3.59-5.92,22.82,22.82,0,0,1-1.21-7.58V393.84Z"/><path d="M623.58,360.29a10.2,10.2,0,0,1,1-4.4,10.71,10.71,0,0,1,2.67-3.59,12.91,12.91,0,0,1,3.95-2.37,13.36,13.36,0,0,1,4.85-.86,13.56,13.56,0,0,1,4.8.86,12.87,12.87,0,0,1,4,2.37,10.74,10.74,0,0,1,2.68,3.59,10.34,10.34,0,0,1,1,4.4,10,10,0,0,1-1,4.34,10.85,10.85,0,0,1-2.68,3.54,12.9,12.9,0,0,1-4,2.38,13.56,13.56,0,0,1-4.8.86,13.36,13.36,0,0,1-4.85-.86,12.94,12.94,0,0,1-3.95-2.38,10.82,10.82,0,0,1-2.67-3.54A9.81,9.81,0,0,1,623.58,360.29Zm1,28.4,23-6.37v78.13h-23Z"/><path d="M682.2,383.13l22.23,47.61,22.65-47.61h15.76l-37.5,79H694.83l-36.79-79Z"/><path d="M752.34,360.29a10.34,10.34,0,0,1,1-4.4A10.87,10.87,0,0,1,756,352.3a13,13,0,0,1,3.94-2.37,14,14,0,0,1,9.66,0,12.87,12.87,0,0,1,4,2.37,10.87,10.87,0,0,1,2.68,3.59,10.34,10.34,0,0,1,1,4.4,10,10,0,0,1-1,4.34,11,11,0,0,1-2.68,3.54,12.9,12.9,0,0,1-4,2.38,14,14,0,0,1-9.66,0,13,13,0,0,1-3.94-2.38,11,11,0,0,1-2.68-3.54A10,10,0,0,1,752.34,360.29Zm1,28.4,23-6.37v78.13h-23Z"/><path d="M790.25,393.84v-7.68a15.76,15.76,0,0,0,7.78-2,23.17,23.17,0,0,0,6.57-5.56,36.45,36.45,0,0,0,5-8.18,43.47,43.47,0,0,0,3.14-10h12.73v24.16h18.7v9.29h-18.7v49a6.83,6.83,0,0,0,1.16,4,3.7,3.7,0,0,0,3.19,1.67,5.37,5.37,0,0,0,2.63-.81,20.24,20.24,0,0,0,2.72-1.87,19.67,19.67,0,0,0,2.33-2.18A17.21,17.21,0,0,0,839,442l7.89,6.26a47.63,47.63,0,0,1-4.2,5.51,24,24,0,0,1-5.25,4.45,25.44,25.44,0,0,1-6.88,2.93,33.94,33.94,0,0,1-8.94,1.06,23.37,23.37,0,0,1-8.34-1.36,16,16,0,0,1-6-3.84,16.18,16.18,0,0,1-3.59-5.92,22.57,22.57,0,0,1-1.21-7.58V393.84Z"/><path d="M847.86,383.13h24.36l24,46.8,21.23-46.8h16.27l-38.2,84.5a33,33,0,0,1-5.21,8.08,36.68,36.68,0,0,1-7,6.22,32.63,32.63,0,0,1-8,4,25.24,25.24,0,0,1-8.13,1.42,20.75,20.75,0,0,1-5.72-.76,17.56,17.56,0,0,1-4.7-2.07,11.24,11.24,0,0,1-3.23-3.13,7,7,0,0,1-1.21-3.95,9.16,9.16,0,0,1,.5-2.93,7,7,0,0,1,1.72-2.73,8.89,8.89,0,0,1,3.29-2A15.06,15.06,0,0,1,863,469a7,7,0,0,1,3.39.71,16.3,16.3,0,0,1,2.27,1.52c.67.54,1.36,1,2.07,1.51a5,5,0,0,0,2.78.71,3.39,3.39,0,0,0,2.33-1.26,18.23,18.23,0,0,0,2.37-3.19A40.43,40.43,0,0,0,880.4,465c.68-1.45,1.28-2.75,1.82-3.89L885,455Z"/></g></g></svg>