<svg xmlns="http://www.w3.org/2000/svg" viewBox="0 0 140.45 98.62"><defs><style>.cls-1{fill:#d7d9db;fill-rule:evenodd;}.cls-2{fill:#202e67;}.cls-3{fill:#fff;}</style></defs><title>Asset 1</title><g id="Layer_2" data-name="Layer 2"><g id="Layer_1-2" data-name="Layer 1"><path class="cls-1" d="M131.65,49.31A49.31,49.31,0,1,1,82.35,0,49.31,49.31,0,0,1,131.65,49.31Z"/><path class="cls-2" d="M135.92,40.34a10.73,10.73,0,0,0-13.59,0,8.59,8.59,0,0,0-1.08,1.18V40.14a1.75,1.75,0,0,0-1.75-1.75h-4.66a1.75,1.75,0,0,0-1.75,1.75V53.51a.48.48,0,0,1-.11.35,2.11,2.11,0,0,1-1.29.29,2,2,0,0,1-1.33-.33.59.59,0,0,1-.06-.31V40.14a1.76,1.76,0,0,0-1.75-1.75h-4.66a1.75,1.75,0,0,0-1.75,1.75V41.5a7.9,7.9,0,0,0-1.08-1.16,10.73,10.73,0,0,0-13.59,0,8,8,0,0,0-1.08,1.18V39.66a1.75,1.75,0,0,0-1.75-1.75,9.71,9.71,0,0,0-6.78,2.42,8.27,8.27,0,0,0-1.94,2.58A8.07,8.07,0,0,0,74,40.34a10.73,10.73,0,0,0-13.59,0,8.4,8.4,0,0,0-2.79,6.35v6.83a8.42,8.42,0,0,0,2.78,6.37,8.79,8.79,0,0,0,3.16,1.85,1.14,1.14,0,0,0-.11.11L60.34,65.3a1.75,1.75,0,0,0,.12,2.46,10.66,10.66,0,0,0,13.55,0,8.52,8.52,0,0,0,2.75-5.94h4.73a1.75,1.75,0,0,0,1.75-1.75V46.68a1.07,1.07,0,0,1,0-.29,2.13,2.13,0,0,1,1.37-.33h.07c0,.21,0,.41,0,.62v6.83a8.45,8.45,0,0,0,2.77,6.37,10.73,10.73,0,0,0,13.59,0A8.05,8.05,0,0,0,103,57.32a8.49,8.49,0,0,0,1.91,2.55,10.7,10.7,0,0,0,13.58,0,8.55,8.55,0,0,0,1.11-1.22V66.1a1.75,1.75,0,0,0,1.75,1.75H126a1.75,1.75,0,0,0,1.75-1.75V62.23a12.7,12.7,0,0,0,1.4.08,9.81,9.81,0,0,0,6.77-2.42,8.43,8.43,0,0,0,2.79-6.38V46.68A8.39,8.39,0,0,0,135.92,40.34ZM68.48,53.86a2.09,2.09,0,0,1-1.29.29c-.9,0-1.21-.24-1.27-.3a.45.45,0,0,1-.12-.34V46.68a.49.49,0,0,1,.09-.32,2.15,2.15,0,0,1,1.3-.3,2.38,2.38,0,0,1,1.3.27.59.59,0,0,1,.1.35v7A.26.26,0,0,1,68.48,53.86Zm27.16-.35a.48.48,0,0,1-.11.35,2.86,2.86,0,0,1-2.59,0,.72.72,0,0,1-.06-.31V46.68a.56.56,0,0,1,.07-.32,2.05,2.05,0,0,1,1.32-.3,2.09,2.09,0,0,1,1.27.27.53.53,0,0,1,.1.35Zm34.87,0c0,.17,0,.27,0,.27h0l-.09.09a2,2,0,0,1-1.26.29,2,2,0,0,1-1.33-.33.55.55,0,0,1-.07-.31V46.68a.66.66,0,0,1,.07-.32,2.07,2.07,0,0,1,1.33-.3,1.92,1.92,0,0,1,1.3.31.52.52,0,0,1,.07.31Z"/><path class="cls-2" d="M41,24a26,26,0,0,0-3.6-.26A23.07,23.07,0,0,0,24,28.1a1.68,1.68,0,0,0-.83-.21H13.62a1.75,1.75,0,0,0-1.68,1.27L1.82,65A1.76,1.76,0,0,0,2.1,66.5a1.79,1.79,0,0,0,1.4.69h7.66a1.76,1.76,0,0,0,1.7-1.31l1.52-5.83h8.27l1.49,5.83a1.76,1.76,0,0,0,1.7,1.31h5.79a26.65,26.65,0,0,1-3.85.28,28.3,28.3,0,0,1-4.21-.31A27.59,27.59,0,0,1,18,66l-.37-.12a1.75,1.75,0,0,0-2.25,1.42L14.1,76.21a1.75,1.75,0,0,0,1.29,2l.23.06a42.69,42.69,0,0,0,5.14,1,60,60,0,0,0,8.44.66h0A32.14,32.14,0,0,0,43,77.13a19.37,19.37,0,0,0,11.2-15,14.43,14.43,0,0,0-1-7.56,12.45,12.45,0,0,0-5.65-6,12.89,12.89,0,0,0,7.28-9.91,11.27,11.27,0,0,0-3.51-10C47.64,25.22,42.48,24.24,41,24ZM16.62,50.47l1.79-7.4,1.82,7.4Zm23.7,10.78C40,63.81,37.76,65.45,35,66.4A1.72,1.72,0,0,0,35.18,65l-2.56-8.86a11,11,0,0,1,2.09-.2,11.87,11.87,0,0,1,1.68.12C38.49,56.32,40.87,57.49,40.32,61.25Zm.8-22.91c-.23,1.58-1.72,3-4.41,4.37a56.19,56.19,0,0,1-7.14,2.83L28,40a1.85,1.85,0,0,0,.32-.25c2.24-2.21,4.95-4.57,8.63-4.57a8.62,8.62,0,0,1,1.24.09,3.79,3.79,0,0,1,2.52,1.37A2.28,2.28,0,0,1,41.12,38.34Z"/><path class="cls-3" d="M94.27,44.31a3.7,3.7,0,0,0-2.48.74,2.17,2.17,0,0,0-.66,1.63v6.83a2.12,2.12,0,0,0,.66,1.62,4.35,4.35,0,0,0,4.94,0,2.12,2.12,0,0,0,.66-1.62V46.68a2.17,2.17,0,0,0-.66-1.63A3.68,3.68,0,0,0,94.27,44.31Z"/><polygon class="cls-3" points="18.32 36.03 14.4 52.22 22.46 52.22 18.49 36.03 18.32 36.03"/><path class="cls-3" d="M137.08,39a11.53,11.53,0,0,0-7.94-2.87,12,12,0,0,0-6.8,1.94,3.49,3.49,0,0,0-2.84-1.46h-4.66a3.52,3.52,0,0,0-3.15,2,3.51,3.51,0,0,0-3.14-2h-4.66A3.53,3.53,0,0,0,101,38.1a11.92,11.92,0,0,0-6.77-1.94A12.09,12.09,0,0,0,87.7,38a3.5,3.5,0,0,0-3.06-1.8,11.44,11.44,0,0,0-8,2.89,8.61,8.61,0,0,0-.74.74c-.24-.27-.5-.52-.76-.76a12.48,12.48,0,0,0-16,0,10.14,10.14,0,0,0-3.34,7.63v6.83a10.18,10.18,0,0,0,3.37,7.68,11,11,0,0,0,1.44,1.11L59,64.12a3.51,3.51,0,0,0,.25,4.94,12.4,12.4,0,0,0,15.87,0l0,0a10.21,10.21,0,0,0,3.1-5.48h3.2a3.5,3.5,0,0,0,3.5-3.5v-.3a10.31,10.31,0,0,0,1.31,1.42,12.47,12.47,0,0,0,15.94,0,10.46,10.46,0,0,0,.75-.74,10.18,10.18,0,0,0,.73.74,11.47,11.47,0,0,0,8,2.89,12.16,12.16,0,0,0,6.14-1.54V66.1a3.5,3.5,0,0,0,3.5,3.5H126a3.5,3.5,0,0,0,3.5-3.5v-2a11.41,11.41,0,0,0,7.61-2.88,10.16,10.16,0,0,0,3.35-7.66V46.68A10.12,10.12,0,0,0,137.08,39ZM75,61.39a6.86,6.86,0,0,1-2.2,5.08,8.93,8.93,0,0,1-11.19,0L64.76,63a4.31,4.31,0,0,0,4.92,0,2.16,2.16,0,0,0,.66-1.62V60a8.86,8.86,0,0,1-3.15.52,8.07,8.07,0,0,1-5.6-2,6.73,6.73,0,0,1-2.21-5.08V46.68a6.68,6.68,0,0,1,2.21-5,8.07,8.07,0,0,1,5.6-2,8.19,8.19,0,0,1,5.64,2,6.78,6.78,0,0,1,2.2,5Zm9.61-17.08a3.83,3.83,0,0,0-2.49.74,2.17,2.17,0,0,0-.66,1.63V60.07H76.83V46.68a6.67,6.67,0,0,1,2.2-5,8,8,0,0,1,5.61-2Zm17.44,9.2a6.72,6.72,0,0,1-2.2,5.08,9,9,0,0,1-11.24,0,6.72,6.72,0,0,1-2.2-5.08V46.68a6.67,6.67,0,0,1,2.2-5,9,9,0,0,1,11.24,0,6.67,6.67,0,0,1,2.2,5Zm17.42,0a6.72,6.72,0,0,1-2.2,5.08,9,9,0,0,1-11.21,0,6.72,6.72,0,0,1-2.2-5.08V40.14h4.66V53.51a2.11,2.11,0,0,0,.65,1.62,3.65,3.65,0,0,0,2.49.77,3.56,3.56,0,0,0,2.49-.77,2.12,2.12,0,0,0,.66-1.62V40.14h4.66Zm17.45,0a6.73,6.73,0,0,1-2.21,5.08,8.07,8.07,0,0,1-5.6,2A8.86,8.86,0,0,1,126,60V66.1h-4.66V46.68a6.65,6.65,0,0,1,2.17-5,8.17,8.17,0,0,1,5.64-2,8.07,8.07,0,0,1,5.6,2,6.68,6.68,0,0,1,2.21,5Z"/><path class="cls-3" d="M50.77,48.6a14.09,14.09,0,0,0,5.78-9.68,13,13,0,0,0-4-11.51,21.65,21.65,0,0,0-11.29-5.12A26.89,26.89,0,0,0,37.38,22,24.59,24.59,0,0,0,23.7,26.18a3.31,3.31,0,0,0-.55,0H13.62a3.49,3.49,0,0,0-3.36,2.54L.13,64.49A3.5,3.5,0,0,0,3.5,68.94h7.66A3.48,3.48,0,0,0,13.53,68L12.36,76A3.51,3.51,0,0,0,15,79.85l.22.06A43.24,43.24,0,0,0,20.5,81a60.87,60.87,0,0,0,8.7.68,33.87,33.87,0,0,0,14.56-2.94A21.09,21.09,0,0,0,56,62.4a16.29,16.29,0,0,0-1.15-8.53A14,14,0,0,0,50.77,48.6ZM13,58.3l-1.86,7.14H3.5l10.12-35.8h9.53L33.5,65.44H25.84L24,58.3Zm39.47,3.57A17.59,17.59,0,0,1,42.28,75.55,30.66,30.66,0,0,1,29.2,78.16a58,58,0,0,1-8.2-.64,41.23,41.23,0,0,1-5.17-1.06l1.31-8.94a29,29,0,0,0,6.18,1.38,31.64,31.64,0,0,0,4.46.32c6.94,0,13.5-2.41,14.27-7.72s-3.12-6.88-5.4-7.22a13.52,13.52,0,0,0-1.94-.14,12.05,12.05,0,0,0-3,.37l-2.09-7.14a58.19,58.19,0,0,0,7.87-3.09c1.68-.82,4.92-2.62,5.37-5.68.37-2.57-1.66-4.71-4.46-5.11a11,11,0,0,0-1.49-.11c-4.56,0-7.82,3.07-9.86,5.08l-2.49-8.62a21.47,21.47,0,0,1,12.83-4.33,24.82,24.82,0,0,1,3.36.24A18.26,18.26,0,0,1,50.12,30a9.48,9.48,0,0,1,3,8.45c-1,6.71-6.23,8.71-9.55,10l-.06.38C46,49.59,49.69,51,51.6,55.3A12.77,12.77,0,0,1,52.49,61.87Z"/><path class="cls-3" d="M129.14,44.31a3.71,3.71,0,0,0-2.49.74,2.17,2.17,0,0,0-.66,1.63v6.83a2.12,2.12,0,0,0,.66,1.62,4.36,4.36,0,0,0,4.95,0,2,2,0,0,0,.66-1.62V46.68a2.1,2.1,0,0,0-.66-1.63A3.72,3.72,0,0,0,129.14,44.31Z"/><path class="cls-3" d="M67.19,44.31a3.72,3.72,0,0,0-2.46.74,2.18,2.18,0,0,0-.68,1.63v6.83a2.18,2.18,0,0,0,.68,1.62,4.36,4.36,0,0,0,5,0,1.91,1.91,0,0,0,.66-1.4v-7a2.17,2.17,0,0,0-.66-1.63A3.73,3.73,0,0,0,67.19,44.31Z"/></g></g></svg>