<?xml version="1.0" standalone="no"?>
<!DOCTYPE svg PUBLIC "-//W3C//DTD SVG 20010904//EN"
 "http://www.w3.org/TR/2001/REC-SVG-20010904/DTD/svg10.dtd">
<svg version="1.0" xmlns="http://www.w3.org/2000/svg"
 width="240.000000pt" height="240.000000pt" viewBox="0 0 240.000000 240.000000"
 preserveAspectRatio="xMidYMid meet">
<metadata>
Created by potrace 1.11, written by Peter Selinger 2001-2013
</metadata>
<g transform="translate(0.000000,240.000000) scale(0.100000,-0.100000)"
fill="#000000" stroke="none">
<path d="M1400 2236 c-132 -28 -340 -127 -340 -162 0 -8 21 -87 47 -174 l46
-160 48 45 c114 107 237 159 359 153 229 -11 304 -204 137 -354 -55 -49 -176
-111 -334 -169 -57 -21 -103 -41 -103 -44 0 -3 17 -64 38 -135 l39 -130 114 0
c98 -1 121 -4 167 -25 206 -93 180 -381 -45 -494 -180 -92 -460 -108 -717 -42
-50 13 -94 20 -97 16 -11 -12 -51 -333 -43 -341 12 -11 130 -36 244 -51 129
-18 436 -18 525 0 102 20 238 66 315 107 264 138 422 460 354 719 -36 142
-129 241 -286 305 -32 13 -58 26 -58 29 0 3 45 27 99 53 167 79 254 187 281
348 29 174 -54 324 -237 426 -113 64 -199 86 -353 90 -90 2 -157 -1 -200 -10z"/>
<path d="M617 2083 c-3 -5 -91 -314 -196 -688 -106 -374 -196 -692 -201 -707
l-9 -28 152 0 152 0 28 108 c15 59 32 124 38 145 l10 37 219 0 219 0 9 -32 c5
-18 22 -84 38 -145 l29 -113 152 0 152 0 -9 28 c-5 15 -98 333 -205 707 -108
374 -199 683 -201 687 -7 10 -371 10 -377 1z m272 -563 c39 -162 74 -305 77
-317 l6 -23 -161 0 c-133 0 -161 2 -161 14 0 13 133 575 146 620 3 10 9 14 14
10 4 -5 40 -142 79 -304z"/>
</g>
</svg>
